<svg width="34" height="24" viewBox="0 0 34 24" fill="none" xmlns="http://www.w3.org/2000/svg">
<path d="M23.3969 8.85488C23.3969 9.83941 23.4323 10.818 23.3851 11.8026C23.3379 12.9227 23.6799 13.8836 24.3873 14.7326C24.4698 14.8328 24.5465 14.933 24.6172 15.0391C24.8707 15.4223 24.8236 15.6876 24.4757 15.9824C23.7329 16.6073 22.996 17.2381 22.2532 17.863C21.811 18.2344 21.534 18.2285 21.0859 17.863C20.4846 17.3737 20.013 16.7723 19.5944 16.1298C19.4942 15.9765 19.4411 15.9824 19.3173 16.1003C18.5745 16.8254 17.7904 17.4975 16.7941 17.8335C15.2554 18.3582 13.6931 18.4407 12.1485 17.8925C10.6629 17.3619 9.77272 16.2653 9.44258 14.7384C9.07707 13.0347 9.26572 11.4135 10.3151 9.9691C11.111 8.87846 12.2134 8.23587 13.4809 7.84088C14.7897 7.43999 16.1397 7.28672 17.4956 7.15112C17.8788 7.10985 18.2561 7.07448 18.6393 7.03911C18.7337 7.03322 18.8162 7.02142 18.8103 6.89762C18.7985 6.27271 18.8634 5.63601 18.716 5.0229C18.5273 4.23882 18.0144 3.77898 17.2303 3.60801C16.6703 3.48421 16.1161 3.51958 15.5737 3.70234C14.7484 3.98532 14.2355 4.55716 14.0292 5.4061C13.9172 5.87183 13.699 6.0369 13.2451 5.98974C12.2782 5.88952 11.3114 5.78929 10.3505 5.68907C9.95547 5.64781 9.74914 5.34714 9.83167 4.96394C10.3328 2.51737 11.9363 1.14375 14.2473 0.51295C16.0218 0.0295303 17.8199 5.32724e-05 19.6003 0.501159C21.0328 0.902043 22.2355 1.60949 22.9076 3.01258C23.2908 3.80845 23.3792 4.66918 23.391 5.5299C23.4028 6.63233 23.391 7.74655 23.3969 8.85488ZM18.8103 10.6942C18.8103 10.3995 18.7985 10.1047 18.8162 9.80993C18.828 9.62717 18.7631 9.56232 18.5804 9.58001C18.1323 9.62128 17.6784 9.62717 17.2303 9.68613C16.4463 9.78635 15.6799 9.98089 15.0432 10.4761C14.1176 11.2012 13.923 12.1917 14.0763 13.3059C14.2591 14.6146 15.4264 15.3398 16.6762 14.9035C17.5251 14.6087 18.0439 13.9838 18.4035 13.1998C18.7808 12.4039 18.8103 11.5491 18.8103 10.6942Z" fill="white"/>
<path d="M16.6301 23.9999C12.1319 23.9704 8.09363 22.8149 4.4444 20.3802C3.70159 19.8849 2.99415 19.3426 2.32207 18.7471C2.26312 18.6941 2.20417 18.641 2.157 18.5762C2.09216 18.4877 2.04499 18.3816 2.12163 18.2755C2.19827 18.1576 2.32797 18.1458 2.43998 18.1989C2.69938 18.3227 2.94698 18.4583 3.20048 18.588C5.52325 19.8142 7.96983 20.6985 10.5343 21.2586C12.8571 21.7656 15.2034 22.0014 17.5852 21.9365C20.9868 21.8422 24.2646 21.1583 27.4186 19.8908C27.5719 19.826 27.7311 19.7611 27.8902 19.7258C28.1143 19.6845 28.3383 19.714 28.4385 19.9557C28.5328 20.1797 28.409 20.3566 28.244 20.4981C28.1261 20.5983 27.9905 20.6808 27.8549 20.7693C25.821 22.0898 23.5925 22.9387 21.2344 23.4634C19.678 23.8172 18.0981 23.9881 16.6301 23.9999Z" fill="#F6A61F"/>
<path d="M27.9772 18.7472C27.2992 18.7413 26.6271 18.8297 25.9551 18.9005C25.8254 18.9122 25.678 18.9476 25.619 18.8061C25.5483 18.647 25.6839 18.5526 25.7959 18.476C26.633 17.9218 27.5704 17.7037 28.5549 17.6506C29.2329 17.6094 29.905 17.6389 30.5652 17.8393C30.8659 17.9277 31.0133 18.1046 31.0074 18.4111C30.972 20.0501 30.4238 21.4767 29.2388 22.6381C29.1975 22.6794 29.1504 22.7148 29.1032 22.7501C28.9971 22.8268 28.8674 22.8975 28.7554 22.8032C28.6493 22.7148 28.7082 22.5851 28.7554 22.4789C29.1032 21.6123 29.4569 20.7516 29.6279 19.826C29.6515 19.7081 29.6574 19.5902 29.6633 19.4782C29.6692 19.095 29.5336 18.9299 29.1563 18.8356C28.7613 18.7295 28.3663 18.7472 27.9772 18.7472Z" fill="#F6A61F"/>
</svg>
