<svg width="32" height="32" viewBox="0 0 32 32" fill="none" xmlns="http://www.w3.org/2000/svg">
<mask id="mask0_30_49" style="mask-type:alpha" maskUnits="userSpaceOnUse" x="0" y="0" width="32" height="32">
<rect width="32" height="32" fill="#D9D9D9"/>
</mask>
<g mask="url(#mask0_30_49)">
<path d="M16.0333 27.5667C13.6367 25.1649 11.6619 23.1444 10.109 21.505C8.55589 19.8657 7.32678 18.4478 6.42167 17.2514C5.51656 16.0547 4.88667 15.0017 4.532 14.0924C4.17733 13.183 4 12.2634 4 11.3334C4 9.47469 4.64644 7.89891 5.93933 6.60602C7.23222 5.31313 8.808 4.66669 10.6667 4.66669C11.5176 4.66669 12.3401 4.81158 13.1343 5.10135C13.9286 5.39113 14.6496 5.81202 15.2973 6.36402L13.1027 14H17.1793L16.1743 24.7564L20.2563 11.3334H16.205L18.1873 5.39502C18.6604 5.15213 19.1572 4.97002 19.6777 4.84869C20.1983 4.72735 20.7331 4.66669 21.282 4.66669C23.1407 4.66669 24.7164 5.31313 26.0093 6.60602C27.3022 7.89891 27.9487 9.47469 27.9487 11.3334C27.9487 12.2805 27.7572 13.224 27.3743 14.164C26.9914 15.1042 26.3376 16.1868 25.4127 17.4117C24.488 18.6364 23.2632 20.0586 21.7383 21.6784C20.2137 23.2979 18.312 25.2607 16.0333 27.5667ZM14.923 24.546L15.777 15.3334H11.3383L13.7617 6.87435C13.2863 6.62813 12.7866 6.42091 12.2623 6.25269C11.7379 6.08424 11.206 6.00002 10.6667 6.00002C9.19356 6.00002 7.93644 6.52069 6.89533 7.56202C5.854 8.60313 5.33333 9.86024 5.33333 11.3334C5.33333 12.0565 5.48678 12.8051 5.79367 13.5794C6.10056 14.3538 6.62622 15.2482 7.37067 16.2627C8.11511 17.2774 9.10311 18.4492 10.3347 19.7784C11.5662 21.1072 13.0957 22.6965 14.923 24.546ZM17.7283 23.946C21.0154 20.5631 23.3184 17.9606 24.6373 16.1384C25.956 14.3161 26.6153 12.7145 26.6153 11.3334C26.6153 9.86024 26.0947 8.60313 25.0533 7.56202C24.0122 6.52069 22.7551 6.00002 21.282 6.00002C20.9351 6.00002 20.5967 6.03802 20.2667 6.11402C19.9367 6.19024 19.6068 6.28135 19.277 6.38735L18.0923 10H21.9847L17.7283 23.946Z" fill="#FF0000"/>
</g>
</svg>
