<svg width="11" height="18" viewBox="0 0 11 18" fill="none" xmlns="http://www.w3.org/2000/svg">
<path d="M11.0007 12.1251C11.0007 13.5695 10.4937 14.7987 9.47982 15.8126C8.46593 16.8265 7.23676 17.3334 5.79232 17.3334C4.34787 17.3334 3.11871 16.8265 2.10482 15.8126C1.09093 14.7987 0.583984 13.5695 0.583984 12.1251V4.41675C0.583984 3.37508 0.948568 2.48966 1.67773 1.7605C2.4069 1.03133 3.29232 0.666748 4.33398 0.666748C5.37565 0.666748 6.26107 1.03133 6.99023 1.7605C7.7194 2.48966 8.08398 3.37508 8.08398 4.41675V11.7084C8.08398 12.3473 7.86176 12.889 7.41732 13.3334C6.97287 13.7779 6.43121 14.0001 5.79232 14.0001C5.15343 14.0001 4.61176 13.7779 4.16732 13.3334C3.72287 12.889 3.50065 12.3473 3.50065 11.7084V4.00008H5.16732V11.7084C5.16732 11.889 5.22635 12.0383 5.3444 12.1563C5.46246 12.2744 5.61176 12.3334 5.79232 12.3334C5.97287 12.3334 6.12218 12.2744 6.24023 12.1563C6.35829 12.0383 6.41732 11.889 6.41732 11.7084V4.41675C6.40343 3.83341 6.19857 3.34036 5.80273 2.93758C5.4069 2.5348 4.91732 2.33341 4.33398 2.33341C3.75065 2.33341 3.2576 2.5348 2.85482 2.93758C2.45204 3.34036 2.25065 3.83341 2.25065 4.41675V12.1251C2.23676 13.1112 2.57704 13.948 3.27148 14.6355C3.96593 15.323 4.80621 15.6667 5.79232 15.6667C6.76454 15.6667 7.59093 15.323 8.27148 14.6355C8.95204 13.948 9.30621 13.1112 9.33398 12.1251V4.00008H11.0007V12.1251Z" fill="white"/>
</svg>
