<svg width="32" height="33" viewBox="0 0 32 33" fill="none" xmlns="http://www.w3.org/2000/svg">
<path d="M31.9997 16.5C31.9997 25.3358 24.8377 32.5 15.9997 32.5C14.7924 32.5 13.6163 32.3663 12.4852 32.1123C11.063 31.7942 9.7124 31.2857 8.46134 30.616C7.34428 30.0185 6.30694 29.2918 5.36838 28.4566C5.08157 28.2015 4.80376 27.9362 4.53628 27.6607C3.35964 26.4529 2.37288 25.0599 1.62394 23.5299C1.47722 23.2312 1.33951 22.9274 1.21239 22.6186C0.43088 20.7336 0 18.6668 0 16.5C0 16.3022 0.0039724 16.1038 0.0129766 15.906C0.323093 7.34507 7.36255 0.5 16 0.5C18.1255 0.5 20.1541 0.914459 22.0093 1.66658C22.3676 1.81223 22.7195 1.96981 23.0646 2.14036C24.5718 2.88294 25.9444 3.85593 27.1372 5.01298C27.4002 5.26801 27.6541 5.53151 27.8991 5.80376C28.7704 6.77251 29.5252 7.84772 30.1409 9.00847C30.7757 10.205 31.2632 11.4921 31.5795 12.8451C31.8101 13.8334 31.9492 14.8562 31.987 15.9057C31.9963 16.1038 31.9997 16.3019 31.9997 16.5Z" fill="#FFD627"/>
<path d="M28.7872 16.5003C28.7872 16.6965 28.7819 16.8928 28.7748 17.0874C28.4662 23.8679 22.8545 29.2884 15.9991 29.2884C9.14367 29.2884 3.53218 23.8676 3.22338 17.0874C3.21623 16.893 3.21094 16.6965 3.21094 16.5003C3.21094 9.44865 8.94743 3.71216 15.9991 3.71216C23.0507 3.71216 28.7872 9.44865 28.7872 16.5003Z" fill="#B45D00"/>
<path d="M28.776 17.0876C28.4675 23.8681 22.8557 29.2887 16.0003 29.2887C15.847 29.2887 15.6952 29.2849 15.5435 29.2796C14.0143 29.2261 12.553 28.9031 11.204 28.3554C9.85491 27.8077 8.62027 27.0368 7.54611 26.0876C7.27307 25.8466 7.01089 25.5953 6.75745 25.331C5.61206 24.1303 4.69495 22.71 4.08292 21.1361C3.93488 20.7595 3.80459 20.3726 3.69389 19.9799C3.42985 19.0537 3.27095 18.085 3.22461 17.0874C3.5334 10.3069 9.1449 4.88452 16.0003 4.88452C16.8674 4.88452 17.7151 4.97192 18.5358 5.13796C18.9534 5.22192 19.3655 5.32705 19.7688 5.45205C21.4158 5.96053 22.9216 6.79395 24.2116 7.87684C24.49 8.11069 24.7593 8.35671 25.018 8.61545C26.0225 9.61466 26.8631 10.7799 27.4929 12.0665C28.1068 13.3207 28.5207 14.6875 28.6955 16.1276C28.7349 16.4433 28.7617 16.7646 28.776 17.0876Z" fill="#AD6B00"/>
<path d="M22.5417 11.1775H18.3034C18.6728 11.7459 18.9747 12.4283 19.136 13.2406H22.5417V15.6786H19.1641C18.7533 18.0398 17.0785 19.3131 15.8034 19.8288C15.4509 19.9731 15.07 20.0388 14.6895 20.0388H12.9697L19.7679 26.837H16.5873L9.78906 20.0388V17.6007H13.7594C15.0459 17.6007 16.1617 16.8076 16.61 15.6786H10.1641V13.2406H16.6061C16.1953 12.074 15.2952 11.4477 14.7962 11.1775H10.1641V8.7395H22.5417V11.1775Z" fill="#F37E00"/>
<path d="M22.5417 10.6609H18.3034C18.6728 11.2293 18.9747 11.9117 19.136 12.724H22.5417V15.162H19.1641C18.7533 17.523 17.0785 18.7965 15.8034 19.3121C15.4509 19.4565 15.07 19.5222 14.6895 19.5222H12.9697L19.7679 26.3204H16.5873L9.78906 19.5222V17.0841H13.7594C15.0459 17.0841 16.1617 16.2907 16.61 15.162H10.1641V12.724H16.6061C16.1953 11.5574 15.2952 10.9311 14.7962 10.6609H10.1641V8.2229H22.5417V10.6609Z" fill="#FFD627"/>
</svg>
