<svg width="32" height="32" viewBox="0 0 32 32" fill="none" xmlns="http://www.w3.org/2000/svg">
<mask id="mask0_2_100" style="mask-type:alpha" maskUnits="userSpaceOnUse" x="0" y="0" width="32" height="32">
<rect width="32" height="32" fill="#D9D9D9"/>
</mask>
<g mask="url(#mask0_2_100)">
<path d="M10.6667 14.359C10.9418 14.359 11.1816 14.2569 11.386 14.0527C11.5902 13.8482 11.6923 13.6084 11.6923 13.3333C11.6923 13.0582 11.5902 12.8184 11.386 12.614C11.1816 12.4098 10.9418 12.3077 10.6667 12.3077C10.3916 12.3077 10.1518 12.4098 9.94733 12.614C9.74311 12.8184 9.641 13.0582 9.641 13.3333C9.641 13.6084 9.74311 13.8482 9.94733 14.0527C10.1518 14.2569 10.3916 14.359 10.6667 14.359ZM16 14.359C16.2751 14.359 16.5149 14.2569 16.7193 14.0527C16.9236 13.8482 17.0257 13.6084 17.0257 13.3333C17.0257 13.0582 16.9236 12.8184 16.7193 12.614C16.5149 12.4098 16.2751 12.3077 16 12.3077C15.7249 12.3077 15.4851 12.4098 15.2807 12.614C15.0764 12.8184 14.9743 13.0582 14.9743 13.3333C14.9743 13.6084 15.0764 13.8482 15.2807 14.0527C15.4851 14.2569 15.7249 14.359 16 14.359ZM21.3333 14.359C21.6084 14.359 21.8482 14.2569 22.0527 14.0527C22.2569 13.8482 22.359 13.6084 22.359 13.3333C22.359 13.0582 22.2569 12.8184 22.0527 12.614C21.8482 12.4098 21.6084 12.3077 21.3333 12.3077C21.0582 12.3077 20.8184 12.4098 20.614 12.614C20.4098 12.8184 20.3077 13.0582 20.3077 13.3333C20.3077 13.6084 20.4098 13.8482 20.614 14.0527C20.8184 14.2569 21.0582 14.359 21.3333 14.359ZM4 26.7693V6.154C4 5.54022 4.20556 5.02778 4.61667 4.61667C5.02778 4.20556 5.54022 4 6.154 4H25.846C26.4598 4 26.9722 4.20556 27.3833 4.61667C27.7944 5.02778 28 5.54022 28 6.154V20.5127C28 21.1264 27.7944 21.6389 27.3833 22.05C26.9722 22.4611 26.4598 22.6667 25.846 22.6667H8.10267L4 26.7693ZM7.53333 21.3333H25.846C26.0513 21.3333 26.2394 21.2479 26.4103 21.077C26.5812 20.9061 26.6667 20.718 26.6667 20.5127V6.154C26.6667 5.94867 26.5812 5.76056 26.4103 5.58967C26.2394 5.41878 26.0513 5.33333 25.846 5.33333H6.154C5.94867 5.33333 5.76056 5.41878 5.58967 5.58967C5.41878 5.76056 5.33333 5.94867 5.33333 6.154V23.5257L7.53333 21.3333Z" fill="white"/>
<path d="M10.6667 14.359C10.9418 14.359 11.1816 14.2569 11.386 14.0527C11.5902 13.8482 11.6923 13.6084 11.6923 13.3333C11.6923 13.0582 11.5902 12.8184 11.386 12.614C11.1816 12.4098 10.9418 12.3077 10.6667 12.3077C10.3916 12.3077 10.1518 12.4098 9.94733 12.614C9.74311 12.8184 9.641 13.0582 9.641 13.3333C9.641 13.6084 9.74311 13.8482 9.94733 14.0527C10.1518 14.2569 10.3916 14.359 10.6667 14.359ZM16 14.359C16.2751 14.359 16.5149 14.2569 16.7193 14.0527C16.9236 13.8482 17.0257 13.6084 17.0257 13.3333C17.0257 13.0582 16.9236 12.8184 16.7193 12.614C16.5149 12.4098 16.2751 12.3077 16 12.3077C15.7249 12.3077 15.4851 12.4098 15.2807 12.614C15.0764 12.8184 14.9743 13.0582 14.9743 13.3333C14.9743 13.6084 15.0764 13.8482 15.2807 14.0527C15.4851 14.2569 15.7249 14.359 16 14.359ZM21.3333 14.359C21.6084 14.359 21.8482 14.2569 22.0527 14.0527C22.2569 13.8482 22.359 13.6084 22.359 13.3333C22.359 13.0582 22.2569 12.8184 22.0527 12.614C21.8482 12.4098 21.6084 12.3077 21.3333 12.3077C21.0582 12.3077 20.8184 12.4098 20.614 12.614C20.4098 12.8184 20.3077 13.0582 20.3077 13.3333C20.3077 13.6084 20.4098 13.8482 20.614 14.0527C20.8184 14.2569 21.0582 14.359 21.3333 14.359ZM4 26.7693V6.154C4 5.54022 4.20556 5.02778 4.61667 4.61667C5.02778 4.20556 5.54022 4 6.154 4H25.846C26.4598 4 26.9722 4.20556 27.3833 4.61667C27.7944 5.02778 28 5.54022 28 6.154V20.5127C28 21.1264 27.7944 21.6389 27.3833 22.05C26.9722 22.4611 26.4598 22.6667 25.846 22.6667H8.10267L4 26.7693ZM7.53333 21.3333H25.846C26.0513 21.3333 26.2394 21.2479 26.4103 21.077C26.5812 20.9061 26.6667 20.718 26.6667 20.5127V6.154C26.6667 5.94867 26.5812 5.76056 26.4103 5.58967C26.2394 5.41878 26.0513 5.33333 25.846 5.33333H6.154C5.94867 5.33333 5.76056 5.41878 5.58967 5.58967C5.41878 5.76056 5.33333 5.94867 5.33333 6.154V23.5257L7.53333 21.3333Z" fill="white"/>
</g>
</svg>
