<svg width="24" height="24" viewBox="0 0 24 24" fill="none" xmlns="http://www.w3.org/2000/svg">
<mask id="mask0_545_41" style="mask-type:alpha" maskUnits="userSpaceOnUse" x="0" y="0" width="24" height="24">
<rect width="24" height="24" fill="#D9D9D9"/>
</mask>
<g mask="url(#mask0_545_41)">
<path d="M12.025 21.925C9.79167 19.675 8.0125 17.8583 6.6875 16.475C5.3625 15.0917 4.35417 13.9417 3.6625 13.025C2.97083 12.1083 2.52083 11.325 2.3125 10.675C2.10417 10.025 2 9.3 2 8.5C2 6.96667 2.53333 5.66667 3.6 4.6C4.66667 3.53333 5.96667 3 7.5 3C8.25 3 8.975 3.1375 9.675 3.4125C10.375 3.6875 11 4.08333 11.55 4.6L10 10H13L12.15 18.375L15 9H12L13.775 3.7C14.1917 3.46667 14.6292 3.29167 15.0875 3.175C15.5458 3.05833 16.0167 3 16.5 3C18.0333 3 19.3333 3.53333 20.4 4.6C21.4667 5.66667 22 6.96667 22 8.5C22 9.3 21.8917 10.0333 21.675 10.7C21.4583 11.3667 21 12.1625 20.3 13.0875C19.6 14.0125 18.5917 15.1625 17.275 16.5375C15.9583 17.9125 14.2083 19.7083 12.025 21.925ZM10.25 17.275L10.775 12H7.35L9.225 5.425C8.95833 5.29167 8.67917 5.1875 8.3875 5.1125C8.09583 5.0375 7.8 5 7.5 5C6.53333 5 5.70833 5.34167 5.025 6.025C4.34167 6.70833 4 7.53333 4 8.5C4 9.01667 4.09583 9.53333 4.2875 10.05C4.47917 10.5667 4.8125 11.1542 5.2875 11.8125C5.7625 12.4708 6.40417 13.2375 7.2125 14.1125C8.02083 14.9875 9.03333 16.0417 10.25 17.275ZM14.95 16.075C16.8 14.1917 18.1042 12.6917 18.8625 11.575C19.6208 10.4583 20 9.43333 20 8.5C20 7.53333 19.6583 6.70833 18.975 6.025C18.2917 5.34167 17.4667 5 16.5 5C16.3167 5 16.1333 5.0125 15.95 5.0375C15.7667 5.0625 15.5833 5.10833 15.4 5.175L14.8 7H17.7L14.95 16.075Z" fill="#FF0000"/>
</g>
</svg>
