<svg width="20" height="20" viewBox="0 0 20 20" fill="none" xmlns="http://www.w3.org/2000/svg">
<mask id="mask0_222_974" style="mask-type:alpha" maskUnits="userSpaceOnUse" x="0" y="0" width="20" height="20">
<rect width="20" height="20" fill="#D9D9D9"/>
</mask>
<g mask="url(#mask0_222_974)">
<path d="M3.33333 18.3334C3.09722 18.3334 2.89931 18.2536 2.73958 18.0938C2.57986 17.9341 2.5 17.7362 2.5 17.5001V13.3334C2.5 12.8751 2.66319 12.4827 2.98958 12.1563C3.31597 11.8299 3.70833 11.6667 4.16667 11.6667V8.33341C4.16667 7.87508 4.32986 7.48272 4.65625 7.15633C4.98264 6.82994 5.375 6.66675 5.83333 6.66675H9.16667V5.45841C8.91667 5.29175 8.71528 5.09036 8.5625 4.85425C8.40972 4.61814 8.33333 4.33341 8.33333 4.00008C8.33333 3.79175 8.375 3.58689 8.45833 3.3855C8.54167 3.18411 8.66667 3.00008 8.83333 2.83341L10 1.66675L11.1667 2.83341C11.3333 3.00008 11.4583 3.18411 11.5417 3.3855C11.625 3.58689 11.6667 3.79175 11.6667 4.00008C11.6667 4.33341 11.5903 4.61814 11.4375 4.85425C11.2847 5.09036 11.0833 5.29175 10.8333 5.45841V6.66675H14.1667C14.625 6.66675 15.0174 6.82994 15.3438 7.15633C15.6701 7.48272 15.8333 7.87508 15.8333 8.33341V11.6667C16.2917 11.6667 16.684 11.8299 17.0104 12.1563C17.3368 12.4827 17.5 12.8751 17.5 13.3334V17.5001C17.5 17.7362 17.4201 17.9341 17.2604 18.0938C17.1007 18.2536 16.9028 18.3334 16.6667 18.3334H3.33333ZM5.83333 11.6667H14.1667V8.33341H5.83333V11.6667ZM4.16667 16.6667H15.8333V13.3334H4.16667V16.6667Z" fill="url(#paint0_linear_222_974)"/>
</g>
<defs>
<linearGradient id="paint0_linear_222_974" x1="2.5" y1="1.66675" x2="2.5" y2="18.3334" gradientUnits="userSpaceOnUse">
<stop stop-color="#B2FEFA"/>
<stop offset="1" stop-color="#0ED2F7"/>
</linearGradient>
</defs>
</svg>
