<svg width="62" height="203" viewBox="0 0 62 203" fill="none" xmlns="http://www.w3.org/2000/svg">
<g clip-path="url(#clip0_194_826)">
<path d="M2.39313 4.76079C3.71482 4.76079 4.78626 3.69505 4.78626 2.38039C4.78626 1.06574 3.71482 0 2.39313 0C1.07144 0 0 1.06574 0 2.38039C0 3.69505 1.07144 4.76079 2.39313 4.76079Z" fill="url(#paint0_linear_194_826)"/>
<path d="M28.1197 4.76079C29.4414 4.76079 30.5128 3.69505 30.5128 2.38039C30.5128 1.06574 29.4414 0 28.1197 0C26.798 0 25.7266 1.06574 25.7266 2.38039C25.7266 3.69505 26.798 4.76079 28.1197 4.76079Z" fill="url(#paint1_linear_194_826)"/>
<path d="M56.0382 2.38039C56.0382 3.76896 55.0411 4.76079 53.6451 4.76079C52.2491 4.76079 51.252 3.76896 51.252 2.38039C51.252 0.991831 52.2491 0 53.6451 0C55.0411 0 56.0382 0.991831 56.0382 2.38039Z" fill="url(#paint2_linear_194_826)"/>
<path d="M2.39313 32.9286C3.71482 32.9286 4.78626 31.8629 4.78626 30.5482C4.78626 29.2336 3.71482 28.1678 2.39313 28.1678C1.07144 28.1678 0 29.2336 0 30.5482C0 31.8629 1.07144 32.9286 2.39313 32.9286Z" fill="white"/>
<path d="M28.1197 32.9286C29.4414 32.9286 30.5128 31.8629 30.5128 30.5482C30.5128 29.2336 29.4414 28.1678 28.1197 28.1678C26.798 28.1678 25.7266 29.2336 25.7266 30.5482C25.7266 31.8629 26.798 32.9286 28.1197 32.9286Z" fill="url(#paint3_linear_194_826)"/>
<path d="M56.0382 30.5482C56.0382 31.9368 55.0411 32.9286 53.6451 32.9286C52.2491 32.9286 51.252 31.9368 51.252 30.5482C51.252 29.1597 52.2491 28.1678 53.6451 28.1678C55.0411 28.1678 56.0382 29.358 56.0382 30.5482Z" fill="url(#paint4_linear_194_826)"/>
<path d="M4.78626 58.9147C4.78626 60.3032 3.78912 61.2951 2.39313 61.2951C0.997137 61.2951 0 60.3032 0 58.9147C0 57.5261 0.997137 56.5343 2.39313 56.5343C3.78912 56.3359 4.78626 57.5261 4.78626 58.9147Z" fill="url(#paint5_linear_194_826)"/>
<path d="M30.5128 58.9147C30.5128 60.3032 29.5157 61.2951 28.1197 61.2951C26.7237 61.2951 25.7266 60.3032 25.7266 58.9147C25.7266 57.5261 26.7237 56.5343 28.1197 56.5343C29.3163 56.3359 30.5128 57.5261 30.5128 58.9147Z" fill="url(#paint6_linear_194_826)"/>
<path d="M56.0382 58.9147C56.0382 60.3032 55.0411 61.2951 53.6451 61.2951C52.2491 61.2951 51.252 60.3032 51.252 58.9147C51.252 57.5261 52.2491 56.5343 53.6451 56.5343C55.0411 56.3359 56.0382 57.5261 56.0382 58.9147Z" fill="white"/>
<path d="M2.39313 89.4627C3.71482 89.4627 4.78626 88.397 4.78626 87.0823C4.78626 85.7676 3.71482 84.7019 2.39313 84.7019C1.07144 84.7019 0 85.7676 0 87.0823C0 88.397 1.07144 89.4627 2.39313 89.4627Z" fill="url(#paint7_linear_194_826)"/>
<path d="M28.1197 89.4627C29.4414 89.4627 30.5128 88.397 30.5128 87.0823C30.5128 85.7676 29.4414 84.7019 28.1197 84.7019C26.798 84.7019 25.7266 85.7676 25.7266 87.0823C25.7266 88.397 26.798 89.4627 28.1197 89.4627Z" fill="url(#paint8_linear_194_826)"/>
<path d="M56.0382 87.0823C56.0382 88.4709 55.0411 89.4627 53.6451 89.4627C52.2491 89.4627 51.252 88.4709 51.252 87.0823C51.252 85.6937 52.2491 84.7019 53.6451 84.7019C55.0411 84.7019 56.0382 85.6937 56.0382 87.0823Z" fill="url(#paint9_linear_194_826)"/>
<path d="M4.78626 115.251C4.78626 116.639 3.78912 117.631 2.39313 117.631C0.997137 117.631 0 116.639 0 115.251C0 113.862 0.997137 112.87 2.39313 112.87C3.78912 112.87 4.78626 113.862 4.78626 115.251Z" fill="url(#paint10_linear_194_826)"/>
<path d="M30.5128 115.251C30.5128 116.639 29.5157 117.631 28.1197 117.631C26.7237 117.631 25.7266 116.639 25.7266 115.251C25.7266 113.862 26.7237 112.87 28.1197 112.87C29.3163 112.87 30.5128 113.862 30.5128 115.251Z" fill="url(#paint11_linear_194_826)"/>
<path d="M56.0382 115.251C56.0382 116.639 55.0411 117.631 53.6451 117.631C52.2491 117.631 51.252 116.639 51.252 115.251C51.252 113.862 52.2491 112.87 53.6451 112.87C55.0411 112.87 56.0382 113.862 56.0382 115.251Z" fill="url(#paint12_linear_194_826)"/>
<path d="M2.39313 145.799C3.71482 145.799 4.78626 144.733 4.78626 143.418C4.78626 142.104 3.71482 141.038 2.39313 141.038C1.07144 141.038 0 142.104 0 143.418C0 144.733 1.07144 145.799 2.39313 145.799Z" fill="url(#paint13_linear_194_826)"/>
<path d="M28.1197 145.799C29.4414 145.799 30.5128 144.733 30.5128 143.418C30.5128 142.104 29.4414 141.038 28.1197 141.038C26.798 141.038 25.7266 142.104 25.7266 143.418C25.7266 144.733 26.798 145.799 28.1197 145.799Z" fill="url(#paint14_linear_194_826)"/>
<path d="M56.0382 143.418C56.0382 144.807 55.0411 145.799 53.6451 145.799C52.2491 145.799 51.252 144.807 51.252 143.418C51.252 142.03 52.2491 141.038 53.6451 141.038C55.0411 141.038 56.0382 142.03 56.0382 143.418Z" fill="url(#paint15_linear_194_826)"/>
<path d="M2.39313 173.967C3.71482 173.967 4.78626 172.901 4.78626 171.587C4.78626 170.272 3.71482 169.206 2.39313 169.206C1.07144 169.206 0 170.272 0 171.587C0 172.901 1.07144 173.967 2.39313 173.967Z" fill="url(#paint16_linear_194_826)"/>
<path d="M28.1197 173.967C29.4414 173.967 30.5128 172.901 30.5128 171.587C30.5128 170.272 29.4414 169.206 28.1197 169.206C26.798 169.206 25.7266 170.272 25.7266 171.587C25.7266 172.901 26.798 173.967 28.1197 173.967Z" fill="url(#paint17_linear_194_826)"/>
<path d="M56.0382 171.587C56.0382 172.975 55.0411 173.967 53.6451 173.967C52.2491 173.967 51.252 172.975 51.252 171.587C51.252 170.198 52.2491 169.206 53.6451 169.206C55.0411 169.206 56.0382 170.396 56.0382 171.587Z" fill="url(#paint18_linear_194_826)"/>
<path d="M4.78626 199.953C4.78626 201.342 3.78912 202.334 2.39313 202.334C0.997137 202.334 0 201.342 0 199.953C0 198.565 0.997137 197.573 2.39313 197.573C3.78912 197.374 4.78626 198.565 4.78626 199.953Z" fill="url(#paint19_linear_194_826)"/>
<path d="M30.5128 199.953C30.5128 201.342 29.5157 202.334 28.1197 202.334C26.7237 202.334 25.7266 201.342 25.7266 199.953C25.7266 198.565 26.7237 197.573 28.1197 197.573C29.3163 197.374 30.5128 198.565 30.5128 199.953Z" fill="white"/>
<path d="M56.0382 199.953C56.0382 201.342 55.0411 202.334 53.6451 202.334C52.2491 202.334 51.252 201.342 51.252 199.953C51.252 198.565 52.2491 197.573 53.6451 197.573C55.0411 197.374 56.0382 198.565 56.0382 199.953Z" fill="url(#paint20_linear_194_826)"/>
</g>
<defs>
<linearGradient id="paint0_linear_194_826" x1="0" y1="0" x2="0" y2="4.76079" gradientUnits="userSpaceOnUse">
<stop stop-color="#E44D26"/>
<stop offset="1" stop-color="#F16529"/>
</linearGradient>
<linearGradient id="paint1_linear_194_826" x1="25.7266" y1="0" x2="25.7266" y2="4.76079" gradientUnits="userSpaceOnUse">
<stop stop-color="#E44D26"/>
<stop offset="1" stop-color="#F16529"/>
</linearGradient>
<linearGradient id="paint2_linear_194_826" x1="51.252" y1="0" x2="51.252" y2="4.76079" gradientUnits="userSpaceOnUse">
<stop stop-color="#E44D26"/>
<stop offset="1" stop-color="#F16529"/>
</linearGradient>
<linearGradient id="paint3_linear_194_826" x1="25.7266" y1="28.1678" x2="25.7266" y2="32.9286" gradientUnits="userSpaceOnUse">
<stop stop-color="#E44D26"/>
<stop offset="1" stop-color="#F16529"/>
</linearGradient>
<linearGradient id="paint4_linear_194_826" x1="51.252" y1="28.1678" x2="51.252" y2="32.9286" gradientUnits="userSpaceOnUse">
<stop stop-color="#E44D26"/>
<stop offset="1" stop-color="#F16529"/>
</linearGradient>
<linearGradient id="paint5_linear_194_826" x1="0" y1="56.5126" x2="0" y2="61.2951" gradientUnits="userSpaceOnUse">
<stop stop-color="#E44D26"/>
<stop offset="1" stop-color="#F16529"/>
</linearGradient>
<linearGradient id="paint6_linear_194_826" x1="25.7266" y1="56.5126" x2="25.7266" y2="61.2951" gradientUnits="userSpaceOnUse">
<stop stop-color="#E44D26"/>
<stop offset="1" stop-color="#F16529"/>
</linearGradient>
<linearGradient id="paint7_linear_194_826" x1="0" y1="84.7019" x2="0" y2="89.4627" gradientUnits="userSpaceOnUse">
<stop stop-color="#E44D26"/>
<stop offset="1" stop-color="#F16529"/>
</linearGradient>
<linearGradient id="paint8_linear_194_826" x1="25.7266" y1="84.7019" x2="25.7266" y2="89.4627" gradientUnits="userSpaceOnUse">
<stop stop-color="#E44D26"/>
<stop offset="1" stop-color="#F16529"/>
</linearGradient>
<linearGradient id="paint9_linear_194_826" x1="51.252" y1="84.7019" x2="51.252" y2="89.4627" gradientUnits="userSpaceOnUse">
<stop stop-color="#E44D26"/>
<stop offset="1" stop-color="#F16529"/>
</linearGradient>
<linearGradient id="paint10_linear_194_826" x1="0" y1="112.87" x2="0" y2="117.631" gradientUnits="userSpaceOnUse">
<stop stop-color="#E44D26"/>
<stop offset="1" stop-color="#F16529"/>
</linearGradient>
<linearGradient id="paint11_linear_194_826" x1="25.7266" y1="112.87" x2="25.7266" y2="117.631" gradientUnits="userSpaceOnUse">
<stop stop-color="#E44D26"/>
<stop offset="1" stop-color="#F16529"/>
</linearGradient>
<linearGradient id="paint12_linear_194_826" x1="51.252" y1="112.87" x2="51.252" y2="117.631" gradientUnits="userSpaceOnUse">
<stop stop-color="#E44D26"/>
<stop offset="1" stop-color="#F16529"/>
</linearGradient>
<linearGradient id="paint13_linear_194_826" x1="0" y1="141.038" x2="0" y2="145.799" gradientUnits="userSpaceOnUse">
<stop stop-color="#E44D26"/>
<stop offset="1" stop-color="#F16529"/>
</linearGradient>
<linearGradient id="paint14_linear_194_826" x1="25.7266" y1="141.038" x2="25.7266" y2="145.799" gradientUnits="userSpaceOnUse">
<stop stop-color="#E44D26"/>
<stop offset="1" stop-color="#F16529"/>
</linearGradient>
<linearGradient id="paint15_linear_194_826" x1="51.252" y1="141.038" x2="51.252" y2="145.799" gradientUnits="userSpaceOnUse">
<stop stop-color="#E44D26"/>
<stop offset="1" stop-color="#F16529"/>
</linearGradient>
<linearGradient id="paint16_linear_194_826" x1="0" y1="169.206" x2="0" y2="173.967" gradientUnits="userSpaceOnUse">
<stop stop-color="#E44D26"/>
<stop offset="1" stop-color="#F16529"/>
</linearGradient>
<linearGradient id="paint17_linear_194_826" x1="25.7266" y1="169.206" x2="25.7266" y2="173.967" gradientUnits="userSpaceOnUse">
<stop stop-color="#E44D26"/>
<stop offset="1" stop-color="#F16529"/>
</linearGradient>
<linearGradient id="paint18_linear_194_826" x1="51.252" y1="169.206" x2="51.252" y2="173.967" gradientUnits="userSpaceOnUse">
<stop stop-color="#E44D26"/>
<stop offset="1" stop-color="#F16529"/>
</linearGradient>
<linearGradient id="paint19_linear_194_826" x1="0" y1="197.551" x2="0" y2="202.334" gradientUnits="userSpaceOnUse">
<stop stop-color="#E44D26"/>
<stop offset="1" stop-color="#F16529"/>
</linearGradient>
<linearGradient id="paint20_linear_194_826" x1="51.252" y1="197.551" x2="51.252" y2="202.334" gradientUnits="userSpaceOnUse">
<stop stop-color="#E44D26"/>
<stop offset="1" stop-color="#F16529"/>
</linearGradient>
<clipPath id="clip0_194_826">
<rect width="158.545" height="202.333" fill="white"/>
</clipPath>
</defs>
</svg>
