<svg width="25" height="24" viewBox="0 0 25 24" fill="none" xmlns="http://www.w3.org/2000/svg">
<g clip-path="url(#clip0_37_33)">
<path d="M24.1945 4.15541C24.1844 4.12151 24.1741 4.08761 24.1606 4.05371C16.1301 4.0571 8.10302 4.05371 0.075902 4.0571C0.055563 4.08083 0.0420037 4.10456 0.0386139 4.13507C0.0386139 10.3622 0.0386139 16.5859 0.0351562 22.813C0.0860037 23.1452 0.269055 23.4469 0.51319 23.6741C0.52336 23.6774 0.547088 23.6807 0.557258 23.6842C0.682682 23.8163 0.862343 23.8808 1.03183 23.9418C1.15726 23.9351 1.27929 23.9893 1.40472 23.9757H11.3708C11.4657 23.9723 11.564 23.9893 11.6555 23.952C11.659 23.9385 11.6623 23.9147 11.6657 23.9012C11.6691 23.8842 11.6724 23.8469 11.6759 23.8266C11.8895 22.6334 12.0962 21.4368 12.3234 20.2436L12.3437 20.0911C11.4217 20.0876 10.4962 20.0911 9.57424 20.0876C9.35048 20.0809 9.12004 20.0876 8.89628 20.0605C8.51326 20.0435 8.12682 20.0571 7.74377 20.0198C7.26919 20.0198 6.798 19.9757 6.32343 19.9757C5.95055 19.9384 5.57427 19.952 5.198 19.9351C4.954 19.9046 4.70309 19.9181 4.4557 19.9079C4.05231 19.8639 3.64214 19.8944 3.23875 19.8503C2.81163 19.8538 2.38451 19.8164 1.95739 19.8062C1.96078 19.8028 1.96417 19.7893 1.96417 19.7859C2.10655 19.7893 2.24553 19.7791 2.3879 19.7757C2.70316 19.735 3.0218 19.7622 3.33705 19.7181C3.66587 19.7181 3.99129 19.6741 4.32011 19.6741C4.61163 19.6333 4.90655 19.6571 5.198 19.6164C5.54044 19.6164 5.87597 19.5724 6.21841 19.5689C6.49977 19.5316 6.78451 19.552 7.06587 19.5147C7.39468 19.5181 7.72011 19.4672 8.04892 19.4707C8.37095 19.4333 8.6997 19.4434 9.02173 19.4095C8.99129 19.2842 8.9675 19.1588 8.94044 19.0333C8.91672 18.9553 8.8218 18.9723 8.76078 18.9621C8.02519 18.8569 7.29299 18.7519 6.56078 18.6503C6.60824 18.6129 6.67265 18.6298 6.72689 18.6231C7.29638 18.579 7.86248 18.5282 8.43197 18.4875C8.56078 18.4808 8.68621 18.457 8.81502 18.4536C8.75739 18.2774 8.7235 18.0841 8.64553 17.9214C7.42865 17.735 6.21163 17.5689 4.99807 17.3689C5.31333 17.318 5.63197 17.2943 5.94722 17.2604L5.97434 17.2502C6.98112 17.1451 7.99129 17.0264 8.99807 16.9282C10.276 16.9214 11.5506 16.9247 12.8286 16.9282C12.8692 16.9214 12.9404 16.9417 12.9472 16.8841C13.0523 16.335 13.154 15.7858 13.259 15.2366C13.4048 14.474 13.6353 13.7214 13.9912 13.0265C14.5505 11.9078 15.4353 10.9587 16.5132 10.3282C17.52 9.73839 18.6861 9.45364 19.8455 9.39941C20.2217 9.36551 20.6014 9.37568 20.9743 9.42313C21.2183 9.48076 21.4692 9.54856 21.6624 9.71466C21.8217 9.84347 21.9166 10.0333 21.9878 10.2231C22.1438 10.674 22.2319 11.1418 22.3065 11.613C22.3099 11.8028 22.3438 12.0164 22.2421 12.1892C22.1472 12.3587 21.9574 12.4401 21.7777 12.4909C21.1234 12.6604 20.4387 12.5011 19.7844 12.6604C19.2455 12.7757 18.7438 13.0739 18.4014 13.5045C17.998 14.0062 17.7844 14.6298 17.6658 15.2536C17.5743 15.8096 17.459 16.3655 17.3675 16.9248C18.0116 16.9283 18.6591 16.9214 19.3065 16.9283C19.5641 16.9283 19.8285 17.0706 19.9336 17.3146C20.0692 17.6265 20.0387 17.9791 19.9946 18.3079C19.9404 18.6774 19.8522 19.0434 19.6861 19.3824C19.5471 19.6706 19.3166 19.935 19.0014 20.0367C18.8387 20.1011 18.6624 20.0875 18.4895 20.0875C17.92 20.0875 17.3505 20.0943 16.7811 20.0875C16.6895 20.5045 16.6285 20.9316 16.5472 21.3553C16.3981 22.179 16.2523 23.0062 16.1031 23.8333C16.0997 23.8605 16.0963 23.918 16.0963 23.9486C16.3641 23.9621 16.6319 23.9486 16.8997 23.9553C18.8861 23.9553 20.876 23.9518 22.8658 23.9553C23.0794 23.9621 23.2963 23.9113 23.4827 23.8062C23.5946 23.7655 23.6624 23.6672 23.7607 23.613C23.8556 23.5587 23.8827 23.4469 23.9641 23.3757C24.0522 23.2197 24.1438 23.0571 24.1505 22.8739C24.1607 22.8739 24.1878 22.8706 24.2014 22.8672C24.1911 16.63 24.2013 10.3927 24.1945 4.15541Z" fill="url(#paint0_linear_37_33)" stroke="#FCD109" stroke-width="0.00318644"/>
<path d="M3.19815 0.0537106C3.48629 -0.0378149 3.78798 0.0232021 4.08297 0.0028631C9.61856 0.00625293 15.1542 0.0028631 20.6897 0.0028631C21.0185 -0.0106962 21.3066 0.175745 21.6117 0.27066C21.8558 0.368965 22.11 0.446931 22.3541 0.552016C22.4049 0.572355 22.4422 0.616423 22.4794 0.653711C22.4761 1.10117 22.4794 1.55202 22.4794 2.00286C22.4829 2.12151 22.4625 2.24354 22.5032 2.3588C22.5744 2.36896 22.6116 2.4232 22.6592 2.46727C22.8829 2.56897 23.0727 2.73507 23.2761 2.87066C23.5811 3.08761 23.9066 3.27744 24.2049 3.50117C24.2184 3.5893 24.2083 3.68083 24.1811 3.76219C24.1507 3.8571 24.171 3.9588 24.1608 4.05371C16.1303 4.0571 8.10317 4.05371 0.0760513 4.0571C0.0591021 3.94524 0.0896106 3.83337 0.0421529 3.72829C0.0353733 3.64015 0.00486486 3.5249 0.0896106 3.46388C0.428594 3.22659 0.787916 3.01303 1.12005 2.76219C1.3269 2.62998 1.52683 2.49439 1.72683 2.3588C1.76751 2.291 1.75395 2.20625 1.75395 2.13168C1.75395 1.64015 1.75395 1.14863 1.75734 0.6571C1.87259 0.507948 2.07266 0.490999 2.23192 0.416422C2.55409 0.294389 2.87951 0.175744 3.19815 0.0537106ZM3.21849 0.111338C2.78459 0.277439 2.34731 0.436762 1.91341 0.602863C1.85578 0.613033 1.8252 0.66388 1.79476 0.707948C1.79815 0.735067 1.80154 0.782524 1.80154 0.809643C1.79809 1.21642 1.80154 1.6232 1.79809 2.02998C1.80154 2.13168 1.78792 2.23337 1.8252 2.3249C1.78114 2.36896 1.73375 2.41303 1.67944 2.44693C1.18792 2.76558 0.713339 3.11134 0.221814 3.42659C0.137068 3.47744 0.0421529 3.54524 0.0692716 3.6571C0.0523224 3.71812 0.0828309 3.76896 0.147238 3.75202C1.21164 3.74524 2.27266 3.7588 3.33714 3.74185C4.92019 3.74185 6.49985 3.74524 8.0829 3.74185L8.10663 3.73168C8.17781 3.74863 8.24893 3.74185 8.32351 3.74185C11.1913 3.74185 14.0591 3.74524 16.9303 3.74185C17.832 3.74524 18.7371 3.74185 19.6421 3.74185C21.1336 3.74185 22.6286 3.75541 24.1201 3.74863C24.1642 3.73846 24.1777 3.70795 24.1608 3.65371C24.1573 3.59947 24.1777 3.5249 24.1201 3.491C23.8828 3.37913 23.6794 3.20625 23.4523 3.07066C23.371 3.00286 23.2659 2.96558 23.2049 2.87405C22.971 2.74185 22.754 2.57913 22.5235 2.43337C22.4794 2.40625 22.4455 2.36219 22.4083 2.3249C22.4286 2.25371 22.4354 2.17574 22.4354 2.10117C22.432 1.67066 22.4354 1.24015 22.432 0.809643C22.4422 0.741846 22.4387 0.66388 22.3777 0.619812C21.9709 0.47405 21.5676 0.318117 21.1641 0.168965C21.0387 0.107948 20.8997 0.0740495 20.7641 0.0537106H3.4387C3.36425 0.0571004 3.29307 0.0943885 3.21849 0.111338Z" fill="#F8F3B5" stroke="#F8F3B5" stroke-width="0.00318644"/>
<path d="M1.80033 0.809814C2.09864 0.935238 2.41721 1.00642 2.71898 1.12846C2.88169 1.19287 2.93254 1.36914 3.00372 1.51151C2.93247 1.5827 2.84772 1.64032 2.76298 1.69456C2.45111 1.90473 2.13247 2.10812 1.82399 2.32507C1.78671 2.23354 1.80033 2.13185 1.79688 2.03015C1.80033 1.62337 1.79694 1.21659 1.80033 0.809814ZM21.5121 1.12846C21.8138 1.00981 22.1291 0.928459 22.4308 0.809814C22.4342 1.24032 22.4308 1.67083 22.4342 2.10134C22.4342 2.17592 22.4274 2.25388 22.4071 2.32507C22.1427 2.14202 21.8749 1.96914 21.6105 1.78948C21.4817 1.69456 21.3393 1.62337 21.2241 1.50812C21.2952 1.36575 21.3495 1.19287 21.5121 1.12846Z" fill="#F7B402" stroke="#F7B402" stroke-width="0.00318644"/>
<path d="M6.97406 1.26747C7.34694 1.17933 7.76389 1.51154 7.73338 1.90137C7.73677 2.28442 7.33331 2.59628 6.96389 2.50815C6.81474 2.4573 6.6723 2.37933 6.58084 2.24713C6.4622 2.06747 6.43501 1.82679 6.52999 1.63018C6.59779 1.44035 6.78084 1.31154 6.97406 1.26747ZM16.6452 1.48103C16.8012 1.30815 17.0486 1.20984 17.2791 1.27086C17.452 1.3217 17.6215 1.43357 17.6961 1.60306C17.8452 1.89459 17.73 2.28781 17.4385 2.44035C17.1808 2.58272 16.8554 2.51493 16.6588 2.30815C16.4588 2.08103 16.4452 1.70815 16.6452 1.48103Z" fill="#BDA727" stroke="#BDA727" stroke-width="0.00318644"/>
<path d="M2.76409 1.6945C2.84883 1.64026 2.93358 1.58263 3.00483 1.51145L3.02849 1.53518C3.05222 1.71145 3.03527 1.89111 3.04205 2.06738C3.03189 2.59619 3.05222 3.1284 3.02849 3.65721C2.04205 3.65721 1.05568 3.65043 0.0691729 3.65721C0.0420543 3.54534 0.13697 3.47755 0.221715 3.4267C0.713241 3.11145 1.18782 2.76568 1.67934 2.44704C1.73365 2.41314 1.78104 2.36907 1.82511 2.32501C2.13358 2.10806 2.45222 1.90467 2.76409 1.6945ZM21.1911 1.6267C21.1911 1.58263 21.2014 1.54534 21.225 1.50806C21.3403 1.62331 21.4827 1.6945 21.6115 1.78941C21.8759 1.96907 22.1437 2.14195 22.4081 2.32501C22.4454 2.36229 22.4793 2.40636 22.5233 2.43348C22.7539 2.57924 22.9707 2.74196 23.2047 2.87416C23.2657 2.96568 23.3708 3.00297 23.4522 3.07077C23.6793 3.20636 23.8827 3.37924 24.12 3.49111C24.1776 3.52501 24.1572 3.59958 24.1606 3.65382C23.1741 3.65721 22.1911 3.65043 21.2047 3.65721C21.1878 3.52162 21.1979 3.38602 21.1945 3.25382C21.1946 2.71145 21.1878 2.16907 21.1911 1.6267Z" fill="#F7E62D" stroke="#F7E62D" stroke-width="0.00318644"/>
<path d="M24.1607 3.65371C23.1742 3.6571 22.1912 3.65032 21.2048 3.6571C21.1879 3.52151 21.198 3.38591 21.1946 3.25371C21.1946 2.71134 21.1879 2.16897 21.1912 1.62659C21.1912 1.58252 21.2014 1.54524 21.2251 1.50795C21.2963 1.36558 21.3505 1.19269 21.5132 1.12829C21.8149 1.00964 22.1302 0.928287 22.4319 0.809643C22.4421 0.741847 22.4387 0.663881 22.3776 0.619813C21.9708 0.47405 21.5675 0.318118 21.1641 0.168965C21.0386 0.107948 20.8996 0.0740499 20.7641 0.0537109H3.43863C3.36406 0.0571008 3.29287 0.0943889 3.21829 0.111338C2.7844 0.27744 2.34711 0.436762 1.91321 0.602864C1.85558 0.613033 1.82501 0.663881 1.79456 0.707948C1.79795 0.735067 1.80134 0.782525 1.80134 0.809643C2.09965 0.935067 2.41823 1.00625 2.71999 1.12829C2.8827 1.19269 2.93355 1.36897 3.00473 1.51134L3.0284 1.53507C3.05212 1.71134 3.03518 1.891 3.04195 2.06727C3.03179 2.59608 3.05212 3.12829 3.0284 3.6571C2.04195 3.6571 1.05558 3.65032 0.0690734 3.6571C0.0521243 3.71812 0.0826327 3.76897 0.147039 3.75202C1.21145 3.74524 2.27246 3.7588 3.33694 3.74185C4.91999 3.74185 6.49965 3.74524 8.0827 3.74185L8.10643 3.73168C8.17762 3.74863 8.24873 3.74185 8.32331 3.74185C11.1911 3.74185 14.0589 3.74524 16.9301 3.74185C17.8318 3.74524 18.7369 3.74185 19.6419 3.74185C21.1334 3.74185 22.6284 3.75541 24.1199 3.74863C24.1641 3.73846 24.1777 3.70795 24.1607 3.65371ZM6.53023 1.62998C6.59802 1.44015 6.78101 1.31134 6.97429 1.26727C7.34718 1.17913 7.76412 1.51134 7.73362 1.90117C7.73701 2.28422 7.33355 2.59608 6.96412 2.50795C6.81497 2.4571 6.67253 2.37913 6.58107 2.24693C6.46243 2.06727 6.43531 1.82659 6.53023 1.62998ZM16.6455 1.48083C16.8014 1.30795 17.0489 1.20964 17.2794 1.27066C17.4523 1.32151 17.6218 1.43337 17.6963 1.60286C17.8455 1.89439 17.7302 2.28761 17.4387 2.44015C17.181 2.58252 16.8556 2.51473 16.659 2.30795C16.459 2.08083 16.4454 1.70795 16.6455 1.48083Z" fill="url(#paint1_radial_37_33)" stroke="#FCD109" stroke-width="0.00318644"/>
<path d="M17.5094 5.14358C17.5568 5.15375 17.2624 4.86067 17.32 4.84711C17.3742 4.85389 17.5799 4.69426 17.8285 4.8245C18.077 4.95473 18.0154 5.25951 17.9872 5.37253C17.9536 5.50704 17.868 5.59287 17.8002 5.66067C17.7629 5.69117 17.6793 5.73863 17.6285 5.73524C17.659 5.56914 17.5607 5.54202 17.5539 5.37253L17.5094 5.14358Z" fill="url(#paint2_linear_37_33)" stroke="#FCD109" stroke-width="0.00318644"/>
<path d="M6.67213 5.32739C6.66535 5.49688 6.56698 5.524 6.59756 5.6901C6.54671 5.69349 6.46305 5.64603 6.42579 5.61552C6.358 5.54772 6.27247 5.46189 6.23884 5.32739C6.21064 5.2144 6.14898 4.90962 6.39756 4.77935C6.64613 4.64908 6.85179 4.80871 6.90603 4.80196C6.96366 4.81552 6.66922 5.10861 6.71661 5.09844L6.67213 5.32739Z" fill="url(#paint3_linear_37_33)" stroke="#FCD109" stroke-width="0.00318644"/>
<path d="M17.065 7.31502C17.116 7.27075 17.1499 7.27075 17.2177 7.27075C16.8109 8.15211 16.3363 9.03346 15.6228 9.71967C15.5465 9.78779 15.4659 9.85095 15.3815 9.90875C15.2998 9.96852 15.2197 10.0246 15.1401 10.0817C15.0621 10.1358 14.9846 10.1903 14.9092 10.2471C14.716 10.3521 14.5465 10.4979 14.3329 10.5623C13.9431 10.7488 13.5228 10.8742 13.0991 10.9623C12.933 10.9895 12.7635 11.0301 12.594 11.0335C12.3838 11.0945 12.1601 11.0504 11.9465 11.064C11.8279 11.0843 11.7227 11.0165 11.6076 11.0301C11.5076 11.016 11.4078 10.999 11.3086 10.9792C11.208 10.9587 11.1081 10.9349 11.009 10.9081C9.45499 10.4233 7.92956 9.23685 7.48516 7.63228C7.46513 7.52422 7.45503 7.41455 7.45499 7.30465C7.50241 7.39957 7.5516 7.4938 7.60248 7.58716C8.23465 8.96567 9.48889 10.0504 10.9706 10.3775C11.0909 10.4323 11.2211 10.4131 11.3364 10.4606C11.4415 10.4606 11.5432 10.4572 11.6449 10.4911C11.994 10.4978 12.3432 10.4945 12.6923 10.4945C12.7397 10.4979 12.7838 10.4741 12.8313 10.464C13.4132 10.4442 13.9834 10.2855 14.5142 10.0449C14.6205 9.99672 14.7251 9.94529 14.8279 9.89106C14.9179 9.84369 15.0058 9.79236 15.0912 9.73723C15.1752 9.68311 15.2568 9.62548 15.3359 9.56448C15.9635 9.06736 16.5058 8.42329 16.8741 7.68265C16.9442 7.54936 17.0084 7.42594 17.065 7.31502Z" fill="#BDA727" stroke="#BDA727" stroke-width="0.00318644"/>
<path d="M16.5133 10.3284C17.5201 9.73858 18.6862 9.45384 19.8456 9.3996C20.2218 9.3657 20.6015 9.37587 20.9744 9.42333C21.2185 9.48096 21.4693 9.54875 21.6625 9.71485C21.5642 9.72163 21.4693 9.67757 21.371 9.66401C21.093 9.60977 20.8049 9.63011 20.5235 9.62333C19.7065 9.62333 18.8829 9.68773 18.093 9.91146C17.6795 10.0369 17.2659 10.1827 16.8896 10.3996C16.2388 10.7589 15.6523 11.2335 15.1778 11.803C14.3303 12.7759 13.832 14.0098 13.5913 15.2674C13.4761 15.9419 13.3438 16.6131 13.2388 17.2911C13.0693 17.308 12.8964 17.2979 12.7269 17.2979C11.9812 17.2945 11.2354 17.2911 10.4896 17.2844C10.3303 17.2911 10.1743 17.2539 10.0151 17.264C8.65913 17.2707 7.3032 17.2606 5.94727 17.2606L5.97438 17.2504C6.98116 17.1452 7.99133 17.0266 8.99811 16.9283C10.276 16.9216 11.5507 16.9249 12.8286 16.9283C12.8692 16.9216 12.9405 16.9418 12.9473 16.8842C13.0524 16.3351 13.154 15.786 13.2591 15.2368C13.4049 14.4742 13.6354 13.7216 13.9913 13.0267C14.5507 11.908 15.4354 10.9589 16.5133 10.3284Z" fill="#0D69B3" stroke="#0D69B3" stroke-width="0.00318644"/>
<path d="M18.0922 9.91143C18.882 9.6877 19.7058 9.62329 20.5227 9.62329C20.8041 9.63007 21.0922 9.60973 21.3702 9.66397C21.4684 9.67753 21.5633 9.7216 21.6617 9.71482C21.821 9.84363 21.9159 10.0335 21.9871 10.2233C22.1431 10.6741 22.2312 11.1419 22.3058 11.6131C22.3092 11.803 22.3431 12.0165 22.2414 12.1894C22.1464 12.3589 21.9567 12.4402 21.777 12.4911C21.1227 12.6606 20.438 12.5012 19.7837 12.6606C19.2448 12.7758 18.7431 13.0741 18.4007 13.5046C17.9973 14.0063 17.7837 14.63 17.6651 15.2538C17.5736 15.8097 17.4583 16.3656 17.3668 16.925C17.3261 17.0504 17.3024 17.186 17.2786 17.3182C17.9193 17.3284 18.56 17.3182 19.2007 17.325C19.4447 17.3182 19.6887 17.3317 19.9329 17.3148C20.0685 17.6267 20.038 17.9793 19.9939 18.308C19.9397 18.6775 19.8515 19.0436 19.6854 19.3826C19.5464 19.6707 19.3159 19.9352 19.0007 20.0368C18.838 20.1013 18.6617 20.0877 18.4888 20.0877C17.9193 20.0877 17.3498 20.0944 16.7803 20.0877C16.6888 20.5047 16.6278 20.9318 16.5464 21.3555C16.3974 22.1792 16.2516 23.0063 16.1024 23.8335C16.099 23.8606 16.0956 23.9182 16.0956 23.9487V23.9521C14.6142 23.9521 13.1363 23.9556 11.6549 23.9521C11.6583 23.9386 11.6617 23.9148 11.6651 23.9013C11.6685 23.8843 11.6719 23.847 11.6753 23.8267C11.6787 23.8539 11.682 23.9047 11.6855 23.9284C11.777 23.9386 11.9431 23.986 11.9669 23.8539C12.1974 22.6064 12.4109 21.3521 12.6482 20.1046C12.5567 20.0843 12.4618 20.0843 12.3669 20.1013C12.3534 20.1487 12.3397 20.1961 12.3228 20.2436L12.3431 20.0911C11.4212 20.0876 10.4957 20.0911 9.5737 20.0876C9.3499 20.0809 9.11946 20.0876 8.89573 20.0605C8.51268 20.0436 8.12624 20.0571 7.74319 20.0198C7.26861 20.0198 6.79743 19.9758 6.32285 19.9758C5.94997 19.9385 5.5737 19.952 5.19743 19.9351C4.95343 19.9046 4.70251 19.9181 4.45512 19.908C4.05173 19.8639 3.64156 19.8945 3.23817 19.8503C2.81106 19.8538 2.38394 19.8164 1.95682 19.8063C1.96021 19.8029 1.9636 19.7893 1.9636 19.7859C2.10597 19.7893 2.24495 19.7791 2.38733 19.7757C2.70258 19.7351 3.02122 19.7622 3.33648 19.7181C3.66529 19.7181 3.99072 19.674 4.31953 19.674C4.61105 19.6334 4.90597 19.6571 5.19743 19.6164C5.53987 19.6164 5.87539 19.5723 6.21783 19.569C6.49919 19.5317 6.78394 19.552 7.06529 19.5147C7.39411 19.5181 7.71953 19.4673 8.04834 19.4706C8.37038 19.4333 8.69912 19.4435 9.02116 19.4096C8.99072 19.2842 8.96692 19.1588 8.93987 19.0333C8.91614 18.9553 8.82122 18.9723 8.76021 18.9621C8.02461 18.857 7.29241 18.7519 6.56021 18.6502C6.60767 18.6129 6.67207 18.6298 6.72631 18.6232C7.2958 18.579 7.8619 18.5281 8.43139 18.4876C8.56021 18.4807 8.68563 18.4571 8.81444 18.4537C8.75682 18.2774 8.72292 18.0842 8.64495 17.9214C7.42807 17.735 6.21105 17.5689 4.9975 17.3689C5.31275 17.3181 5.63139 17.2943 5.94665 17.2604C7.30258 17.2604 8.65851 17.2706 10.0144 17.2638C10.1737 17.2537 10.3297 17.291 10.489 17.2842C11.2348 17.291 11.9805 17.2944 12.7263 17.2977C12.8958 17.2977 13.0687 17.3079 13.2382 17.291C13.3433 16.613 13.4755 15.9418 13.5907 15.2673C13.8314 14.0096 14.3297 12.7757 15.1772 11.8029C15.6517 11.2334 16.2382 10.7588 16.889 10.3995C17.2651 10.1826 17.6786 10.0369 18.0922 9.91143Z" fill="#107BD4" stroke="#107BD4" stroke-width="0.00318644"/>
<path d="M17.3673 16.925C18.0114 16.9285 18.6589 16.9217 19.3063 16.9285C19.5639 16.9285 19.8283 17.0708 19.9334 17.3149C19.6893 17.3318 19.4453 17.3183 19.2012 17.3251C18.5605 17.3183 17.9198 17.3285 17.2792 17.3183C17.3029 17.1861 17.3266 17.0505 17.3673 16.925ZM12.3673 20.1014C12.4622 20.0844 12.5572 20.0844 12.6487 20.1047C12.4114 21.3522 12.1978 22.6065 11.9673 23.854C11.9436 23.9861 11.7774 23.9387 11.686 23.9285C11.6825 23.9048 11.6792 23.854 11.6758 23.8268C11.8893 22.6336 12.0961 21.437 12.3232 20.2438C12.3402 20.1962 12.3537 20.1488 12.3673 20.1014Z" fill="#0D69B3" stroke="#0D69B3" stroke-width="0.00318644"/>
<path d="M17.6626 5.23837C17.6355 5.18753 17.6321 5.12651 17.6321 5.06888L17.6049 5.07227C17.5643 4.92312 17.4389 4.78075 17.2762 4.77397C17.1541 4.7638 17.0016 4.76719 16.9304 4.88244C16.7948 5.06549 16.8592 5.29939 16.8524 5.50617C16.8524 5.51973 16.8559 5.54346 16.8559 5.55702C16.8559 5.696 16.8389 5.83159 16.8152 5.96719C16.7948 6.00787 16.7847 6.05193 16.7847 6.09939C16.7271 6.41803 16.6118 6.73329 16.4559 7.02142C16.4254 7.0621 16.4016 7.10617 16.3915 7.15363C16.2898 7.3299 16.1678 7.49261 16.0424 7.65532C16.022 7.67227 16.005 7.69261 15.9881 7.71295C15.8999 7.82142 15.8051 7.91295 15.7067 8.00787C15.683 8.02142 15.6661 8.03837 15.6457 8.05193C15.5305 8.1638 15.4016 8.26888 15.2626 8.35363C15.2457 8.3638 15.2287 8.37736 15.2084 8.39092C14.3405 8.9638 13.2864 9.20109 12.2592 9.21126C11.3881 9.23837 10.51 9.05193 9.72359 8.67566C9.7101 8.66888 9.6762 8.65532 9.66257 8.64854C9.5304 8.57736 9.39481 8.51634 9.27274 8.4282C9.24562 8.41464 9.21851 8.3977 9.188 8.38414C9.06257 8.30956 8.94393 8.2282 8.83207 8.13329C8.79478 8.09939 8.7541 8.07227 8.71342 8.04176C8.59139 7.94346 8.46596 7.83837 8.36095 7.71973C8.33383 7.68922 8.30664 7.6621 8.27959 7.63498C7.91017 7.25193 7.62203 6.78414 7.46949 6.27566C7.32366 5.87227 7.34407 5.43159 7.32712 5.00787C7.20501 4.82142 6.94746 4.71634 6.74407 4.83159C6.65932 4.89261 6.64915 5.00448 6.58474 5.08244C6.47966 6.20109 6.95762 7.31634 7.72034 8.12312C7.72034 8.15024 7.7339 8.16719 7.75769 8.17736C7.89329 8.30278 8.02542 8.43159 8.16101 8.55363C8.18474 8.57736 8.21186 8.60109 8.24237 8.62142C8.37796 8.73329 8.52373 8.83498 8.6661 8.94007C8.69322 8.96041 8.72034 8.97736 8.75084 8.99431C8.93729 9.10278 9.11349 9.23159 9.31356 9.30617C9.32712 9.31634 9.35085 9.33329 9.3644 9.34007C10.0085 9.64854 10.7034 9.85871 11.4153 9.92651C11.4932 9.92651 11.5712 9.93329 11.6492 9.95024C11.9881 9.97058 12.3271 9.96041 12.6661 9.95363C13.7135 9.8621 14.7949 9.60787 15.6695 8.99092L15.6797 9.00448C15.7068 8.98075 15.7305 8.96041 15.7576 8.94007C15.8967 8.83837 16.0323 8.7299 16.1679 8.61803C16.1983 8.59431 16.2322 8.56719 16.2628 8.53668C16.4119 8.37397 16.5848 8.22481 16.7102 8.03837L16.7306 8.04854C16.7407 8.03159 16.7577 7.9977 16.7679 7.98075C16.8831 7.82481 16.9883 7.6621 17.09 7.49939C17.0967 7.48922 17.1136 7.47227 17.1204 7.4621L17.1069 7.44854C17.1171 7.43498 17.1408 7.40787 17.151 7.39431C17.3374 7.01464 17.5035 6.61803 17.5612 6.1977C17.5849 6.18753 17.5985 6.16719 17.5985 6.14346C17.6019 6.00787 17.6493 5.87905 17.6358 5.74346C17.6659 5.57736 17.6694 5.40787 17.6626 5.23837Z" fill="white" stroke="white" stroke-width="0.00318644"/>
<mask id="mask0_37_33" style="mask-type:luminance" maskUnits="userSpaceOnUse" x="6" y="4" width="12" height="6">
<path d="M17.6626 5.23837C17.6355 5.18753 17.6321 5.12651 17.6321 5.06888L17.6049 5.07227C17.5643 4.92312 17.4389 4.78075 17.2762 4.77397C17.1541 4.7638 17.0016 4.76719 16.9304 4.88244C16.7948 5.06549 16.8592 5.29939 16.8524 5.50617C16.8524 5.51973 16.8559 5.54346 16.8559 5.55702C16.8559 5.696 16.8389 5.83159 16.8152 5.96719C16.7948 6.00787 16.7847 6.05193 16.7847 6.09939C16.7271 6.41803 16.6118 6.73329 16.4559 7.02142C16.4254 7.0621 16.4016 7.10617 16.3915 7.15363C16.2898 7.3299 16.1678 7.49261 16.0424 7.65532C16.022 7.67227 16.005 7.69261 15.9881 7.71295C15.8999 7.82142 15.8051 7.91295 15.7067 8.00787C15.683 8.02142 15.6661 8.03837 15.6457 8.05193C15.5305 8.1638 15.4016 8.26888 15.2626 8.35363C15.2457 8.3638 15.2287 8.37736 15.2084 8.39092C14.3405 8.9638 13.2864 9.20109 12.2592 9.21126C11.3881 9.23837 10.51 9.05193 9.72359 8.67566C9.7101 8.66888 9.6762 8.65532 9.66257 8.64854C9.5304 8.57736 9.39481 8.51634 9.27274 8.4282C9.24562 8.41464 9.21851 8.3977 9.188 8.38414C9.06257 8.30956 8.94393 8.2282 8.83207 8.13329C8.79478 8.09939 8.7541 8.07227 8.71342 8.04176C8.59139 7.94346 8.46596 7.83837 8.36095 7.71973C8.33383 7.68922 8.30664 7.6621 8.27959 7.63498C7.91017 7.25193 7.62203 6.78414 7.46949 6.27566C7.32366 5.87227 7.34407 5.43159 7.32712 5.00787C7.20501 4.82142 6.94746 4.71634 6.74407 4.83159C6.65932 4.89261 6.64915 5.00448 6.58474 5.08244C6.47966 6.20109 6.95762 7.31634 7.72034 8.12312C7.72034 8.15024 7.7339 8.16719 7.75769 8.17736C7.89329 8.30278 8.02542 8.43159 8.16101 8.55363C8.18474 8.57736 8.21186 8.60109 8.24237 8.62142C8.37796 8.73329 8.52373 8.83498 8.6661 8.94007C8.69322 8.96041 8.72034 8.97736 8.75084 8.99431C8.93729 9.10278 9.11349 9.23159 9.31356 9.30617C9.32712 9.31634 9.35085 9.33329 9.3644 9.34007C10.0085 9.64854 10.7034 9.85871 11.4153 9.92651C11.4932 9.92651 11.5712 9.93329 11.6492 9.95024C11.9881 9.97058 12.3271 9.96041 12.6661 9.95363C13.7135 9.8621 14.7949 9.60787 15.6695 8.99092L15.6797 9.00448C15.7068 8.98075 15.7305 8.96041 15.7576 8.94007C15.8967 8.83837 16.0323 8.7299 16.1679 8.61803C16.1983 8.59431 16.2322 8.56719 16.2628 8.53668C16.4119 8.37397 16.5848 8.22481 16.7102 8.03837L16.7306 8.04854C16.7407 8.03159 16.7577 7.9977 16.7679 7.98075C16.8831 7.82481 16.9883 7.6621 17.09 7.49939C17.0967 7.48922 17.1136 7.47227 17.1204 7.4621L17.1069 7.44854C17.1171 7.43498 17.1408 7.40787 17.151 7.39431C17.3374 7.01464 17.5035 6.61803 17.5612 6.1977C17.5849 6.18753 17.5985 6.16719 17.5985 6.14346C17.6019 6.00787 17.6493 5.87905 17.6358 5.74346C17.6659 5.57736 17.6694 5.40787 17.6626 5.23837V5.23837Z" fill="white"/>
</mask>
<g mask="url(#mask0_37_33)">
<path d="M6.32422 5.12392C6.599 5.21012 7.23029 4.99324 7.40896 5.19171M6.48242 5.96005C6.74574 5.86842 7.31039 5.65147 7.54456 5.77927M6.75361 6.79622C6.8809 6.83744 7.13181 6.61381 7.25646 6.54829C7.44188 6.45076 7.63212 6.37602 7.83835 6.34425M7.16039 7.67758C7.29168 7.491 7.44883 7.33605 7.63849 7.20351C7.82649 7.07219 8.34079 6.72131 8.56151 6.84141M7.54456 8.31036C7.69357 8.19188 7.75425 7.98232 7.91073 7.85785C8.10001 7.70727 8.39002 7.68025 8.58412 7.58717M8.18296 8.77924C8.22754 8.45151 8.56032 8.05602 8.87788 8.08432M8.67449 9.2369C8.84229 9.22009 8.98425 8.84449 9.09771 8.7172C9.26774 8.52653 9.44388 8.46788 9.66879 8.40073M9.64622 9.64368C9.63537 9.40653 9.88042 8.72656 10.166 8.76232M10.3694 9.86968C10.3575 9.58941 10.5024 8.74639 10.844 8.71714M11.1152 10.3216C11.0504 9.92971 11.0546 9.36273 11.3637 9.0787M12.0417 10.4121C12.0073 10.0853 11.6826 9.4249 12.0417 9.1691M13.036 10.1861C12.8811 10.0064 12.791 9.29754 12.8552 9.10131M13.9852 10.0278C13.8657 9.8108 13.7175 9.60697 13.6723 9.355C13.6452 9.20442 13.6926 8.98992 13.6688 8.87531M14.7762 9.68887C14.5169 9.51927 14.4449 8.89595 14.5276 8.62673M15.5445 9.34988C15.3601 8.95425 15.1635 8.64751 15.1603 8.19734M16.2903 8.62673C16.0037 8.43395 15.638 8.08351 15.6801 7.70019M17.0813 8.01656C16.6458 7.92009 16.1233 7.53049 15.8609 7.18039M17.4428 7.2708C17.1287 7.20344 16.0909 6.79853 16.1547 6.38944M17.7818 6.47985C17.3442 6.31941 16.7075 6.17517 16.3581 5.86968M18.0078 5.75666C17.7321 5.78025 17.3372 5.6468 17.057 5.59846C16.7459 5.5448 16.4574 5.43995 16.1547 5.37246M17.7366 5.05612C17.2049 5.08795 16.706 4.90602 16.2225 4.73975" stroke="#D1D1D1" stroke-width="0.0677966"/>
</g>
</g>
<defs>
<linearGradient id="paint0_linear_37_33" x1="12.1183" y1="4.05368" x2="12.1183" y2="23.9779" gradientUnits="userSpaceOnUse">
<stop stop-color="#F7E830"/>
<stop offset="1" stop-color="#FDCB06"/>
</linearGradient>
<radialGradient id="paint1_radial_37_33" cx="0" cy="0" r="1" gradientUnits="userSpaceOnUse" gradientTransform="translate(12.0145 13.1411) scale(16.2061)">
<stop offset="0.596" stop-color="#F29405"/>
<stop offset="0.736" stop-color="#F7D01E"/>
<stop offset="1" stop-color="#FDCB06"/>
</radialGradient>
<linearGradient id="paint2_linear_37_33" x1="17.6623" y1="4.77294" x2="17.668" y2="5.71643" gradientUnits="userSpaceOnUse">
<stop stop-color="#FADA1C"/>
<stop offset="1" stop-color="#FDCB06"/>
</linearGradient>
<linearGradient id="paint3_linear_37_33" x1="6.56362" y1="4.72779" x2="6.55796" y2="5.67128" gradientUnits="userSpaceOnUse">
<stop stop-color="#FADA1C"/>
<stop offset="1" stop-color="#FDCB06"/>
</linearGradient>
<clipPath id="clip0_37_33">
<rect width="24.2373" height="24" fill="white"/>
</clipPath>
</defs>
</svg>
