<svg width="33" height="24" viewBox="0 0 33 24" fill="none" xmlns="http://www.w3.org/2000/svg">
<path d="M16.0138 24C14.5821 24 13.3765 22.7945 13.3765 21.3626V9.2887C13.3903 7.05312 11.5289 5.2471 9.32565 5.28406C7.12242 5.2471 5.2656 7.05776 5.27484 9.2887V21.3626C5.27484 22.8175 4.09239 24 2.63741 24C1.2194 24 0 22.776 0 21.3626C0 21.358 0 9.3303 0 9.3303C0 6.7529 1.04388 4.42038 2.73441 2.73442C4.42495 1.04393 6.75289 0 9.32565 0C11.9492 0 14.3233 1.08543 16.0185 2.83136C17.7091 1.08543 20.0832 0 22.7113 0C25.2887 0 27.6167 1.04393 29.3025 2.73442C30.9931 4.42492 32.037 6.75755 32.037 9.3303C32.037 9.3303 32.037 21.358 32.037 21.3626C32.037 22.776 30.8176 24 29.3996 24C27.9447 24 26.7622 22.8175 26.7622 21.3626V9.2887C26.776 7.05312 24.9146 5.2471 22.7113 5.28406C20.5081 5.2471 18.6513 7.05776 18.6605 9.2887V21.3626C18.6513 22.7945 17.4457 24 16.0138 24Z" fill="#FF9C00"/>
</svg>
