<svg width="35" height="24" viewBox="0 0 35 24" fill="none" xmlns="http://www.w3.org/2000/svg">
<g clip-path="url(#clip0_37_26)">
<path d="M7.35255 2.36001C8.02433 1.55387 8.7537 0.690151 9.79016 0.363857C10.9514 0.0567571 11.9399 0.96846 12.6692 1.74581C14.579 3.93389 15.9705 6.51545 17.2661 9.10661C17.9667 7.53272 18.84 6.03561 19.7421 4.57688C20.6058 3.25252 21.4983 1.90895 22.7459 0.901282C23.3217 0.459826 24.1183 0.0375633 24.8381 0.411841C25.8553 0.949266 26.6231 1.84177 27.3428 2.71509C28.8687 4.68245 30.0683 6.88013 31.1528 9.1162C32.506 11.9953 33.6768 14.9991 34.1662 18.1565C34.3102 19.6152 34.4445 21.2562 33.5616 22.5326C32.8802 23.5307 31.5847 23.8762 30.433 23.6747C29.435 23.3196 28.5616 22.667 27.9091 21.8417C26.3544 19.9223 25.4331 17.5998 24.5789 15.3062C24.4542 14.9031 24.3006 14.5096 24.1663 14.1162C24.0799 14.5192 23.9647 14.9223 23.8304 15.3158C22.9571 17.6382 22.0262 20.0087 20.4235 21.9376C19.7805 22.7246 18.936 23.3292 17.9763 23.6747C16.5943 23.9626 15.2604 23.2428 14.3679 22.2255C12.6212 20.3253 11.652 17.8685 10.7594 15.4789C10.5867 14.9895 10.414 14.5 10.2892 13.9914C10.1452 14.5 9.9725 15.0087 9.79016 15.4981C8.98402 17.6958 8.06272 19.9127 6.604 21.7649C5.80746 22.715 4.77099 23.6459 3.47542 23.713C2.27581 23.8186 1.11459 23.0413 0.653937 21.9472C0.00134999 20.4309 0.193287 18.7227 0.481194 17.1392C1.10499 14.1162 2.25661 11.2275 3.61937 8.47321C4.66543 6.33311 5.85544 4.24099 7.35255 2.36001ZM8.03393 3.03179C6.55601 4.91277 5.3756 7.02409 4.31994 9.16419C3.00517 11.9377 1.81516 14.8263 1.30652 17.8685C1.12418 18.7131 1.12418 19.5864 1.21056 20.4405C1.31612 21.2466 1.63282 22.1104 2.37178 22.523C3.08195 22.9357 3.99365 22.7726 4.63664 22.3119C5.78826 21.5058 6.55601 20.2774 7.2182 19.0586C8.63853 16.3426 9.56943 13.3964 10.27 10.431C11.0186 13.4732 11.9591 16.5058 13.4562 19.2793C14.0512 20.3062 14.675 21.3714 15.6442 22.0816C16.1337 22.523 16.7767 22.8301 17.4485 22.7534C18.197 22.6766 18.8208 22.1967 19.3486 21.6881C20.2412 20.7668 20.8937 19.6344 21.4695 18.5019C22.6979 15.9876 23.5425 13.3004 24.2047 10.5941C25.03 13.8763 26.0569 17.168 27.8227 20.0854C28.4849 21.1027 29.2622 22.1584 30.4234 22.6382C31.2392 22.9741 32.2756 22.6766 32.7459 21.9184C33.3121 21.0067 33.3601 19.8743 33.2737 18.8378C33.1585 17.1584 32.6691 15.5269 32.1317 13.9338C31.0568 10.8628 29.6461 7.907 27.9282 5.1527C27.1317 3.9243 26.3064 2.6863 25.1931 1.70742C24.7997 1.36193 24.2143 1.02604 23.7152 1.37153C22.7555 1.95694 22.0933 2.88783 21.4216 3.77075C19.7901 6.09319 18.4465 8.62676 17.3429 11.2371C17.3141 11.2755 17.2373 11.3523 17.2085 11.3907C17.1126 11.0932 17.0166 10.8053 16.8918 10.5173C15.7594 8.07014 14.5022 5.66133 12.8995 3.49244C12.3525 2.77267 11.7863 2.04331 11.0473 1.51548C10.7307 1.29475 10.3084 1.09322 9.93411 1.28516C9.13757 1.64984 8.58095 2.3696 8.03393 3.03179Z" fill="#FEFEFE"/>
<path d="M8.03422 3.03191C8.58124 2.36973 9.14745 1.65956 9.94399 1.29488C10.3183 1.10294 10.7405 1.29488 11.0572 1.5252C11.7962 2.05303 12.3624 2.79199 12.9094 3.50216C14.5025 5.68065 15.7693 8.07986 16.9017 10.5271C17.0361 10.8054 17.132 11.1029 17.2184 11.4004C15.7405 8.8956 14.3969 6.29485 12.5543 4.02998C12.0169 3.39659 11.4507 2.72481 10.6734 2.38892C10.2319 2.19698 9.78085 2.4465 9.41616 2.68642C8.0918 3.79966 7.11292 5.24879 6.19162 6.68832C4.02272 10.1432 2.39126 13.934 1.31641 17.8687C1.82504 14.8265 3.00546 11.9378 4.32982 9.16431C5.37588 7.02421 6.5563 4.9129 8.03422 3.03191ZM23.7155 1.36205C24.2145 1.01657 24.7999 1.35246 25.1934 1.69794C26.3067 2.66723 27.132 3.90522 27.9285 5.14322C29.6464 7.90712 31.0667 10.8534 32.132 13.9244C32.6694 15.5174 33.1588 17.1393 33.274 18.8284C33.0916 17.6575 32.7845 16.5059 32.3911 15.3927C31.3738 12.3313 29.9631 9.39463 28.2548 6.65953C27.5063 5.48871 26.7097 4.32749 25.75 3.32941C25.3662 2.94554 24.9535 2.54247 24.4257 2.36973C24.013 2.24497 23.6387 2.53287 23.3028 2.73441C22.4103 3.43498 21.7194 4.33708 21.0572 5.24879C19.8864 6.90904 18.8403 8.65567 17.8998 10.4503C17.7462 10.7382 17.5543 11.0069 17.3432 11.2468C18.4468 8.62688 19.7904 6.10291 21.4219 3.78047C22.0936 2.88796 22.7654 1.94746 23.7155 1.36205Z" fill="#9E242E"/>
<path d="M9.41566 2.68629C9.78034 2.44637 10.2314 2.19685 10.6729 2.38879C11.4502 2.72468 12.0164 3.39646 12.5538 4.02985C14.3964 6.29471 15.74 8.89546 17.2083 11.4002C16.287 14.0202 15.193 16.6497 15.1258 19.4616C15.0778 20.3637 15.3177 21.2466 15.6536 22.0816C14.6843 21.3714 14.0509 20.3061 13.4655 19.2793C11.978 16.5058 11.0279 13.4828 10.2794 10.431C9.74195 7.89739 9.24292 5.30623 9.41566 2.68629Z" fill="#FF912E"/>
<path d="M21.5847 2.59377C21.9206 2.39224 22.2949 2.10433 22.7076 2.22909C23.2354 2.40183 23.648 2.8049 24.0319 3.18878C24.9916 4.19645 25.7881 5.34807 26.5367 6.51889C28.2449 9.254 29.6557 12.1906 30.673 15.252C31.076 16.3653 31.3735 17.5169 31.5559 18.6877C31.6422 19.7242 31.5943 20.8566 31.028 21.7683C30.5578 22.5361 29.5309 22.824 28.7056 22.4881C27.5444 22.0178 26.767 20.9526 26.1048 19.9353C24.339 17.0275 23.3122 13.7357 22.4868 10.444C21.9302 7.88165 21.412 5.25211 21.5847 2.59377ZM4.4639 6.55728C5.3852 5.11775 6.36408 3.66862 7.68845 2.55538C7.51571 5.16573 8.01474 7.76649 8.56177 10.3001C7.8612 13.2751 6.9207 16.2117 5.50996 18.9276C4.84778 20.1464 4.08003 21.3748 2.9284 22.181C2.28541 22.6416 1.37371 22.8048 0.663542 22.3921C-0.0754172 21.9795 -0.392114 21.1061 -0.497679 20.3096C-0.593648 19.4555 -0.584051 18.5822 -0.401711 17.7376C0.653945 13.8029 2.29501 10.0122 4.4639 6.55728Z" fill="#F41CB2"/>
<path d="M21.0659 5.23899C21.7281 4.32729 22.419 3.42518 23.3116 2.72461C23.1388 5.37335 23.657 8.01249 24.2233 10.5844C23.5611 13.3004 22.707 15.9779 21.4881 18.4923C20.9123 19.6343 20.2597 20.7571 19.3672 21.6784C18.849 22.1871 18.2156 22.6669 17.4671 22.7437C16.7953 22.8205 16.1523 22.5134 15.6628 22.0719C15.327 21.237 15.087 20.3541 15.135 19.452C15.2022 16.6401 16.2962 14.0009 17.2175 11.3906C17.2463 11.3522 17.3231 11.2754 17.3519 11.237C17.563 10.9875 17.755 10.7284 17.9085 10.4405C18.8586 8.64588 19.8951 6.89925 21.0659 5.23899Z" fill="#F25511"/>
</g>
<defs>
<clipPath id="clip0_37_26">
<rect width="34.4432" height="24" fill="white"/>
</clipPath>
</defs>
</svg>
