<svg width="212" height="38" viewBox="0 0 212 38" fill="none" xmlns="http://www.w3.org/2000/svg">
<path d="M0.678593 36.9735V1.30907H18.0862L31.9911 19.1413L45.9225 1.30907H63.3036V36.9735H49.3987V17.9471L35.4673 36.9735H28.5149L14.5835 17.9471V36.9735H0.678593ZM80.8969 1.36214L91.3256 14.1525L101.781 1.36214H118.286L98.278 24.8465V37.0265H84.3732V24.8465L64.365 1.36214H80.8969ZM130.095 13.0645C130.095 14.6301 134.42 14.8424 140.019 15.1078C149.97 15.612 163.955 16.3019 163.928 25.2445C163.928 35.4344 152.252 37.8492 139.727 37.8492C127.229 37.8226 116.853 36.3101 115.526 25.2445H130.095C131.687 28.0043 135.375 28.7208 139.727 28.7208C144.053 28.7208 149.36 28.0043 149.36 25.2445C149.36 23.6789 145.034 23.4401 139.435 23.1747C129.484 22.6706 115.5 21.9806 115.526 13.0645C115.526 2.8747 127.202 0.433383 139.727 0.433383C152.226 0.512991 162.601 1.9194 163.928 13.0645H149.36C147.768 10.2517 144.079 9.58831 139.727 9.58831C135.402 9.58831 130.095 10.2252 130.095 13.0645ZM194.789 37.0265H180.885V12.6665H164.353V1.36214H211.321V12.6665H194.789V37.0265Z" fill="white"/>
</svg>
