<svg width="14" height="14" viewBox="0 0 14 14" fill="none" xmlns="http://www.w3.org/2000/svg">
<mask id="mask0_284_525" style="mask-type:alpha" maskUnits="userSpaceOnUse" x="0" y="0" width="14" height="14">
<rect width="14" height="14" fill="#D9D9D9"/>
</mask>
<g mask="url(#mask0_284_525)">
<path d="M5.54297 9.62484L9.6263 6.99984L5.54297 4.37484V9.62484ZM7.0013 12.8332C6.19436 12.8332 5.43602 12.68 4.7263 12.3738C4.01658 12.0675 3.39922 11.6519 2.87422 11.1269C2.34922 10.6019 1.93359 9.98456 1.62734 9.27484C1.32109 8.56511 1.16797 7.80678 1.16797 6.99984C1.16797 6.19289 1.32109 5.43456 1.62734 4.72484C1.93359 4.01511 2.34922 3.39775 2.87422 2.87275C3.39922 2.34775 4.01658 1.93213 4.7263 1.62588C5.43602 1.31963 6.19436 1.1665 7.0013 1.1665C7.80825 1.1665 8.56658 1.31963 9.2763 1.62588C9.98602 1.93213 10.6034 2.34775 11.1284 2.87275C11.6534 3.39775 12.069 4.01511 12.3753 4.72484C12.6815 5.43456 12.8346 6.19289 12.8346 6.99984C12.8346 7.80678 12.6815 8.56511 12.3753 9.27484C12.069 9.98456 11.6534 10.6019 11.1284 11.1269C10.6034 11.6519 9.98602 12.0675 9.2763 12.3738C8.56658 12.68 7.80825 12.8332 7.0013 12.8332ZM7.0013 11.6665C8.30408 11.6665 9.40755 11.2144 10.3117 10.3103C11.2159 9.40609 11.668 8.30261 11.668 6.99984C11.668 5.69706 11.2159 4.59359 10.3117 3.68942C9.40755 2.78525 8.30408 2.33317 7.0013 2.33317C5.69852 2.33317 4.59505 2.78525 3.69089 3.68942C2.78672 4.59359 2.33464 5.69706 2.33464 6.99984C2.33464 8.30261 2.78672 9.40609 3.69089 10.3103C4.59505 11.2144 5.69852 11.6665 7.0013 11.6665Z" fill="#1C1B1F"/>
<path d="M5.54297 9.62484L9.6263 6.99984L5.54297 4.37484V9.62484ZM7.0013 12.8332C6.19436 12.8332 5.43602 12.68 4.7263 12.3738C4.01658 12.0675 3.39922 11.6519 2.87422 11.1269C2.34922 10.6019 1.93359 9.98456 1.62734 9.27484C1.32109 8.56511 1.16797 7.80678 1.16797 6.99984C1.16797 6.19289 1.32109 5.43456 1.62734 4.72484C1.93359 4.01511 2.34922 3.39775 2.87422 2.87275C3.39922 2.34775 4.01658 1.93213 4.7263 1.62588C5.43602 1.31963 6.19436 1.1665 7.0013 1.1665C7.80825 1.1665 8.56658 1.31963 9.2763 1.62588C9.98602 1.93213 10.6034 2.34775 11.1284 2.87275C11.6534 3.39775 12.069 4.01511 12.3753 4.72484C12.6815 5.43456 12.8346 6.19289 12.8346 6.99984C12.8346 7.80678 12.6815 8.56511 12.3753 9.27484C12.069 9.98456 11.6534 10.6019 11.1284 11.1269C10.6034 11.6519 9.98602 12.0675 9.2763 12.3738C8.56658 12.68 7.80825 12.8332 7.0013 12.8332ZM7.0013 11.6665C8.30408 11.6665 9.40755 11.2144 10.3117 10.3103C11.2159 9.40609 11.668 8.30261 11.668 6.99984C11.668 5.69706 11.2159 4.59359 10.3117 3.68942C9.40755 2.78525 8.30408 2.33317 7.0013 2.33317C5.69852 2.33317 4.59505 2.78525 3.69089 3.68942C2.78672 4.59359 2.33464 5.69706 2.33464 6.99984C2.33464 8.30261 2.78672 9.40609 3.69089 10.3103C4.59505 11.2144 5.69852 11.6665 7.0013 11.6665Z" fill="url(#paint0_linear_284_525)"/>
</g>
<defs>
<linearGradient id="paint0_linear_284_525" x1="1.16797" y1="1.1665" x2="1.16797" y2="12.8332" gradientUnits="userSpaceOnUse">
<stop stop-color="#B2FEFA"/>
<stop offset="1" stop-color="#0ED2F7"/>
</linearGradient>
</defs>
</svg>
