<svg width="21" height="20" viewBox="0 0 21 20" fill="none" xmlns="http://www.w3.org/2000/svg">
<path d="M12.5352 4.71553C12.7086 5.45068 13.3688 5.99834 14.157 5.99834C15.0773 5.99834 15.8234 5.25225 15.8234 4.33193C15.8234 3.41162 15.0773 2.66553 14.157 2.66553C13.3523 2.66553 12.6812 3.23584 12.525 3.99443C11.1773 4.13897 10.125 5.28193 10.125 6.66709C10.125 6.67021 10.125 6.67256 10.125 6.67568C8.65938 6.7374 7.32109 7.15459 6.25859 7.81318C5.86406 7.50771 5.36875 7.32568 4.83125 7.32568C3.54141 7.32568 2.49609 8.371 2.49609 9.66084C2.49609 10.5968 3.04609 11.403 3.84062 11.7757C3.91797 14.4866 6.87187 16.6671 10.5055 16.6671C14.1391 16.6671 17.0969 14.4843 17.1703 11.771C17.9586 11.396 18.5039 10.5921 18.5039 9.66162C18.5039 8.37178 17.4586 7.32646 16.1688 7.32646C15.6336 7.32646 15.1406 7.50693 14.7469 7.81006C13.675 7.14678 12.3219 6.72959 10.8414 6.67412C10.8414 6.67178 10.8414 6.67021 10.8414 6.66787C10.8414 5.67568 11.5789 4.85225 12.5352 4.71709V4.71553ZM6.16484 11.1429C6.20391 10.296 6.76641 9.646 7.42031 9.646C8.07422 9.646 8.57422 10.3327 8.53516 11.1796C8.49609 12.0265 8.00781 12.3343 7.35312 12.3343C6.69844 12.3343 6.12578 11.9897 6.16484 11.1429ZM13.5914 9.646C14.2461 9.646 14.8086 10.296 14.8469 11.1429C14.8859 11.9897 14.3125 12.3343 13.6586 12.3343C13.0047 12.3343 12.5156 12.0272 12.4766 11.1796C12.4375 10.3327 12.9367 9.646 13.5914 9.646ZM12.8133 13.1022C12.9359 13.1147 13.0141 13.2421 12.9664 13.3562C12.5641 14.3179 11.6141 14.9937 10.5055 14.9937C9.39687 14.9937 8.44766 14.3179 8.04453 13.3562C7.99687 13.2421 8.075 13.1147 8.19766 13.1022C8.91641 13.0296 9.69375 12.9897 10.5055 12.9897C11.3172 12.9897 12.0938 13.0296 12.8133 13.1022Z" fill="white" fill-opacity="0.4"/>
</svg>
