<svg width="32" height="32" viewBox="0 0 32 32" fill="none" xmlns="http://www.w3.org/2000/svg">
<mask id="mask0_2_90" style="mask-type:alpha" maskUnits="userSpaceOnUse" x="0" y="0" width="32" height="32">
<rect width="32" height="32" fill="#D9D9D9"/>
</mask>
<g mask="url(#mask0_2_90)">
<path d="M6.91799 14.9564L10.1847 16.3384C10.5982 15.511 11.0487 14.7102 11.536 13.936C12.0231 13.1616 12.5607 12.4086 13.1487 11.677L11.1027 11.2847C10.9658 11.2505 10.8332 11.2547 10.705 11.2974C10.5768 11.3402 10.4614 11.4129 10.359 11.5154L6.91799 14.9564ZM11.241 17.1847L15.0153 20.9514C16.0684 20.476 17.1283 19.8717 18.195 19.1384C19.2617 18.405 20.2872 17.5461 21.2717 16.5617C22.7077 15.1257 23.8047 13.5945 24.5627 11.968C25.3209 10.3416 25.747 8.46335 25.841 6.33335C23.711 6.42735 21.8358 6.85346 20.2153 7.61168C18.5949 8.36968 17.0667 9.46669 15.6307 10.9027C14.6462 11.8871 13.7873 12.917 13.054 13.9924C12.3207 15.0675 11.7163 16.1316 11.241 17.1847ZM18.1487 14.018C17.7573 13.6265 17.5617 13.1568 17.5617 12.609C17.5617 12.0612 17.7573 11.5916 18.1487 11.2C18.5402 10.8085 19.0154 10.6127 19.5743 10.6127C20.1332 10.6127 20.6084 10.8085 21 11.2C21.3915 11.5916 21.5873 12.0612 21.5873 12.609C21.5873 13.1568 21.3915 13.6265 21 14.018C20.6084 14.4094 20.1332 14.605 19.5743 14.605C19.0154 14.605 18.5402 14.4094 18.1487 14.018ZM17.218 25.282L20.659 21.841C20.7614 21.7386 20.8341 21.6232 20.877 21.495C20.9197 21.3668 20.9239 21.2342 20.8897 21.0974L20.4973 19.0514C19.7658 19.6394 19.0128 20.1757 18.2383 20.6604C17.4641 21.145 16.6633 21.5941 15.836 22.0077L17.218 25.282ZM27.0873 5.10502C27.236 7.55457 26.8893 9.80802 26.0473 11.8654C25.2055 13.9227 23.894 15.8419 22.1127 17.623C22.0273 17.7086 21.9504 17.7856 21.882 17.854C21.8135 17.9222 21.7367 17.9991 21.6513 18.0847L22.1897 20.8207C22.2614 21.1796 22.2478 21.5274 22.1487 21.864C22.0495 22.2009 21.8701 22.4992 21.6103 22.759L16.754 27.5897L14.5437 22.382L9.79232 17.6307L4.58466 15.395L9.40766 10.564C9.66743 10.3042 9.96699 10.1205 10.3063 10.0127C10.6457 9.90513 10.9949 9.88724 11.354 9.95902L14.141 10.523C14.2265 10.4377 14.2992 10.3608 14.359 10.2924C14.4188 10.2239 14.4914 10.147 14.577 10.0617C16.3581 8.28035 18.276 6.9718 20.3307 6.13602C22.3853 5.30002 24.6375 4.95635 27.0873 5.10502ZM6.82299 21.5564C7.34432 21.035 7.9781 20.7774 8.72432 20.7834C9.47054 20.7894 10.1043 21.053 10.6257 21.5744C11.147 22.0957 11.4064 22.7295 11.404 23.4757C11.4013 24.2219 11.1393 24.8557 10.618 25.377C10.1649 25.8299 9.43799 26.2179 8.43732 26.541C7.43643 26.8641 6.27866 27.0872 4.96399 27.2104C5.0871 25.8957 5.31443 24.738 5.64599 23.7374C5.97777 22.7365 6.3701 22.0095 6.82299 21.5564ZM7.77432 22.5257C7.51788 22.7821 7.27854 23.2005 7.05632 23.7807C6.8341 24.3611 6.6871 24.9599 6.61532 25.577C7.23243 25.5052 7.83121 25.3552 8.41166 25.127C8.99188 24.8988 9.41021 24.6565 9.66666 24.4C9.93332 24.1334 10.0692 23.8153 10.0743 23.446C10.0794 23.0769 9.94866 22.759 9.68199 22.4923C9.41532 22.2257 9.09743 22.0979 8.72832 22.109C8.35899 22.1201 8.04099 22.259 7.77432 22.5257Z" fill="#0ED2F7"/>
</g>
</svg>
