<svg width="32" height="32" viewBox="0 0 32 32" fill="none" xmlns="http://www.w3.org/2000/svg">
<path fill-rule="evenodd" clip-rule="evenodd" d="M4.28019 22.4254C3.98475 22.119 3.9156 21.6592 4.10788 21.2795L5.04321 19.4324C7.2569 15.0606 11.7408 12.3051 16.6411 12.3051H17.101C17.1345 11.5766 17.1778 10.8484 17.2309 10.1208L17.3213 8.87991C17.3949 7.87081 18.52 7.30672 19.3726 7.8515C22.1695 9.63865 24.601 11.9414 26.5374 14.6371L27.1455 15.4837C27.396 15.8323 27.396 16.3019 27.1455 16.6505L26.5374 17.4971C24.601 20.1928 22.1695 22.4956 19.3726 24.2827C18.52 24.8275 17.3949 24.2634 17.3213 23.2543L17.2309 22.0135C17.1675 21.1445 17.1181 20.2748 17.0825 19.4046C14.2161 19.3219 11.3532 19.9004 8.722 21.1148L5.41908 22.6392C5.03263 22.8176 4.57564 22.7318 4.28019 22.4254ZM7.23785 19.5971L7.88389 19.2989C11.0987 17.8151 14.6261 17.1887 18.1263 17.4575C18.636 17.4967 19.0341 17.914 19.0493 18.4251C19.0832 19.5735 19.142 20.7215 19.2256 21.8681L19.2328 21.9673C21.4241 20.4185 23.3444 18.5139 24.913 16.3303L25.1021 16.0671L24.913 15.804C23.3444 13.6203 21.4241 11.7158 19.2328 10.1669L19.2256 10.2662C19.151 11.2896 19.0961 12.3142 19.0611 13.3393C19.0426 13.8779 18.6006 14.3051 18.0616 14.3051L16.6411 14.3051C12.778 14.3051 9.22074 16.3289 7.23785 19.5971Z" fill="white"/>
</svg>
