<svg width="20" height="20" viewBox="0 0 20 20" fill="none" xmlns="http://www.w3.org/2000/svg">
<mask id="mask0_222_826" style="mask-type:alpha" maskUnits="userSpaceOnUse" x="0" y="0" width="20" height="20">
<rect width="20" height="20" fill="#D9D9D9"/>
</mask>
<g mask="url(#mask0_222_826)">
<path d="M4.87435 14.2501C5.58268 13.7084 6.37435 13.2813 7.24935 12.9688C8.12435 12.6563 9.04102 12.5001 9.99935 12.5001C10.9577 12.5001 11.8743 12.6563 12.7493 12.9688C13.6243 13.2813 14.416 13.7084 15.1243 14.2501C15.6105 13.6806 15.9889 13.0348 16.2598 12.3126C16.5306 11.5904 16.666 10.8195 16.666 10.0001C16.666 8.15286 16.0167 6.57994 14.7181 5.28133C13.4195 3.98272 11.8466 3.33341 9.99935 3.33341C8.15213 3.33341 6.57921 3.98272 5.2806 5.28133C3.98199 6.57994 3.33268 8.15286 3.33268 10.0001C3.33268 10.8195 3.4681 11.5904 3.73893 12.3126C4.00977 13.0348 4.38824 13.6806 4.87435 14.2501ZM9.99935 10.8334C9.1799 10.8334 8.48893 10.5522 7.92643 9.98967C7.36393 9.42716 7.08268 8.73619 7.08268 7.91675C7.08268 7.0973 7.36393 6.40633 7.92643 5.84383C8.48893 5.28133 9.1799 5.00008 9.99935 5.00008C10.8188 5.00008 11.5098 5.28133 12.0723 5.84383C12.6348 6.40633 12.916 7.0973 12.916 7.91675C12.916 8.73619 12.6348 9.42716 12.0723 9.98967C11.5098 10.5522 10.8188 10.8334 9.99935 10.8334ZM9.99935 18.3334C8.84657 18.3334 7.76324 18.1147 6.74935 17.6772C5.73546 17.2397 4.85352 16.6459 4.10352 15.8959C3.35352 15.1459 2.75977 14.264 2.32227 13.2501C1.88477 12.2362 1.66602 11.1529 1.66602 10.0001C1.66602 8.8473 1.88477 7.76397 2.32227 6.75008C2.75977 5.73619 3.35352 4.85425 4.10352 4.10425C4.85352 3.35425 5.73546 2.7605 6.74935 2.323C7.76324 1.8855 8.84657 1.66675 9.99935 1.66675C11.1521 1.66675 12.2355 1.8855 13.2493 2.323C14.2632 2.7605 15.1452 3.35425 15.8952 4.10425C16.6452 4.85425 17.2389 5.73619 17.6764 6.75008C18.1139 7.76397 18.3327 8.8473 18.3327 10.0001C18.3327 11.1529 18.1139 12.2362 17.6764 13.2501C17.2389 14.264 16.6452 15.1459 15.8952 15.8959C15.1452 16.6459 14.2632 17.2397 13.2493 17.6772C12.2355 18.1147 11.1521 18.3334 9.99935 18.3334ZM9.99935 16.6667C10.7355 16.6667 11.4299 16.5591 12.0827 16.3438C12.7355 16.1286 13.3327 15.8195 13.8743 15.4167C13.3327 15.014 12.7355 14.7049 12.0827 14.4897C11.4299 14.2744 10.7355 14.1667 9.99935 14.1667C9.26324 14.1667 8.56879 14.2744 7.91602 14.4897C7.26324 14.7049 6.66602 15.014 6.12435 15.4167C6.66602 15.8195 7.26324 16.1286 7.91602 16.3438C8.56879 16.5591 9.26324 16.6667 9.99935 16.6667ZM9.99935 9.16675C10.3605 9.16675 10.6591 9.04869 10.8952 8.81258C11.1313 8.57647 11.2493 8.27786 11.2493 7.91675C11.2493 7.55564 11.1313 7.25703 10.8952 7.02091C10.6591 6.7848 10.3605 6.66675 9.99935 6.66675C9.63824 6.66675 9.33963 6.7848 9.10352 7.02091C8.8674 7.25703 8.74935 7.55564 8.74935 7.91675C8.74935 8.27786 8.8674 8.57647 9.10352 8.81258C9.33963 9.04869 9.63824 9.16675 9.99935 9.16675Z" fill="url(#paint0_linear_222_826)"/>
</g>
<defs>
<linearGradient id="paint0_linear_222_826" x1="1.66602" y1="1.66675" x2="1.66602" y2="18.3334" gradientUnits="userSpaceOnUse">
<stop stop-color="#B2FEFA"/>
<stop offset="1" stop-color="#0ED2F7"/>
</linearGradient>
</defs>
</svg>
