<svg width="27" height="18" viewBox="0 0 27 18" fill="none" xmlns="http://www.w3.org/2000/svg">
<path d="M13.2367 13.5383C14.5916 13.5383 15.7412 13.0641 16.6857 12.1157C17.6301 11.1672 18.1023 10.0156 18.1023 8.66067C18.1023 7.30578 17.6281 6.15611 16.6797 5.21167C15.7312 4.26722 14.5796 3.795 13.2247 3.795C11.8698 3.795 10.7201 4.26922 9.77567 5.21767C8.83122 6.16611 8.359 7.31778 8.359 8.67267C8.359 10.0276 8.83322 11.1772 9.78167 12.1217C10.7301 13.0661 11.8818 13.5383 13.2367 13.5383ZM13.2307 12.2667C12.2307 12.2667 11.3807 11.9167 10.6807 11.2167C9.98067 10.5167 9.63067 9.66667 9.63067 8.66667C9.63067 7.66667 9.98067 6.81667 10.6807 6.11667C11.3807 5.41667 12.2307 5.06667 13.2307 5.06667C14.2307 5.06667 15.0807 5.41667 15.7807 6.11667C16.4807 6.81667 16.8307 7.66667 16.8307 8.66667C16.8307 9.66667 16.4807 10.5167 15.7807 11.2167C15.0807 11.9167 14.2307 12.2667 13.2307 12.2667ZM13.2343 17.3333C10.3463 17.3333 7.71433 16.5474 5.33833 14.9757C2.96233 13.4039 1.18289 11.3009 0 8.66667C1.18289 6.03244 2.96111 3.92944 5.33467 2.35767C7.70822 0.785888 10.339 0 13.227 0C16.115 0 18.747 0.785888 21.123 2.35767C23.499 3.92944 25.2784 6.03244 26.4613 8.66667C25.2784 11.3009 23.5002 13.4039 21.1267 14.9757C18.7531 16.5474 16.1223 17.3333 13.2343 17.3333ZM13.2307 16C15.7418 16 18.0473 15.3389 20.1473 14.0167C22.2473 12.6944 23.8529 10.9111 24.964 8.66667C23.8529 6.42222 22.2473 4.63889 20.1473 3.31667C18.0473 1.99444 15.7418 1.33333 13.2307 1.33333C10.7196 1.33333 8.414 1.99444 6.314 3.31667C4.214 4.63889 2.60844 6.42222 1.49733 8.66667C2.60844 10.9111 4.214 12.6944 6.314 14.0167C8.414 15.3389 10.7196 16 13.2307 16Z" fill="white"/>
</svg>
