<svg width="14" height="15" viewBox="0 0 14 15" fill="none" xmlns="http://www.w3.org/2000/svg">
<mask id="mask0_545_23" style="mask-type:alpha" maskUnits="userSpaceOnUse" x="0" y="0" width="14" height="15">
<rect y="0.5" width="14" height="14" fill="#D9D9D9"/>
</mask>
<g mask="url(#mask0_545_23)">
<path d="M7.00065 7.50008C7.32148 7.50008 7.59614 7.38585 7.82461 7.15737C8.05308 6.9289 8.16732 6.65425 8.16732 6.33342C8.16732 6.01258 8.05308 5.73793 7.82461 5.50946C7.59614 5.28098 7.32148 5.16675 7.00065 5.16675C6.67982 5.16675 6.40516 5.28098 6.17669 5.50946C5.94822 5.73793 5.83398 6.01258 5.83398 6.33342C5.83398 6.65425 5.94822 6.9289 6.17669 7.15737C6.40516 7.38585 6.67982 7.50008 7.00065 7.50008ZM7.00065 11.7876C8.18676 10.6987 9.06662 9.70946 9.64023 8.81987C10.2138 7.93029 10.5007 7.14036 10.5007 6.45008C10.5007 5.39036 10.1628 4.52265 9.48711 3.84696C8.81141 3.17126 7.9826 2.83341 7.00065 2.83341C6.01871 2.83341 5.18989 3.17126 4.51419 3.84696C3.8385 4.52265 3.50065 5.39036 3.50065 6.45008C3.50065 7.14036 3.78746 7.93029 4.36107 8.81987C4.93468 9.70946 5.81454 10.6987 7.00065 11.7876ZM7.00065 13.3334C5.43537 12.0015 4.26628 10.7643 3.49336 9.62196C2.72044 8.4796 2.33398 7.4223 2.33398 6.45008C2.33398 4.99175 2.80308 3.82994 3.74128 2.96466C4.67947 2.09939 5.76593 1.66675 7.00065 1.66675C8.23537 1.66675 9.32183 2.09939 10.26 2.96466C11.1982 3.82994 11.6673 4.99175 11.6673 6.45008C11.6673 7.4223 11.2809 8.4796 10.5079 9.62196C9.73503 10.7643 8.56593 12.0015 7.00065 13.3334Z" fill="white"/>
</g>
</svg>
